<svg width="30" height="36" viewBox="0 0 30 36" fill="none" xmlns="http://www.w3.org/2000/svg">
<path d="M8.35629 36C8.06169 35.8233 7.94385 35.5876 7.94385 35.2341C7.94385 33.1719 7.94385 31.0508 7.94385 28.9886C7.94385 28.8708 7.94385 28.7529 8.00277 28.6351C8.06169 28.3994 8.23845 28.2816 8.53305 28.2816C8.76873 28.2816 8.94548 28.3994 9.0044 28.694C9.06332 28.8118 9.06332 28.9886 9.06332 29.1064C9.06332 30.8151 9.06332 32.5238 9.06332 34.2914C9.06332 34.4092 9.06332 34.527 9.06332 34.7038C9.18116 34.6449 9.299 34.6449 9.35792 34.586C11.1255 33.82 12.952 33.113 14.7196 32.347C15.0731 32.1703 15.4267 32.1703 15.7802 32.347C17.6656 33.1719 19.5511 33.9379 21.4365 34.7038C21.4365 34.527 21.4365 34.4092 21.4365 34.2914C21.4365 32.5827 21.4365 30.8151 21.4365 29.1064C21.4365 28.9886 21.4365 28.8118 21.4365 28.694C21.4954 28.4583 21.6722 28.2816 21.9078 28.2816C22.2024 28.2816 22.3792 28.3994 22.4381 28.6351C22.497 28.7529 22.497 28.8708 22.497 28.9886C22.497 31.0508 22.497 33.1719 22.497 35.2341C22.497 35.5287 22.3792 35.7644 22.1435 35.9411C22.0257 35.9411 21.9078 35.9411 21.79 35.9411C19.8457 35.1162 17.9013 34.3503 15.9569 33.4665C15.4267 33.2308 14.9553 33.2308 14.425 33.4665C12.4807 34.2914 10.5363 35.1162 8.59197 35.9411C8.53305 36 8.47413 36 8.35629 36Z" fill="white"/>
<path d="M28.5069 8.66123C28.5069 8.83799 28.448 9.01475 28.448 9.19151C28.2712 9.89855 28.448 10.4288 29.0372 10.9002C29.4496 11.1948 29.7442 11.6661 29.921 12.1964C30.0977 12.7856 30.0388 13.4337 29.6853 13.964C29.2139 14.6711 29.2139 15.2603 29.6853 15.9673C30.2745 16.9689 30.0388 18.2062 29.155 18.9722C28.8015 19.2668 28.448 19.5614 28.448 20.0328C28.448 20.2684 28.448 20.5041 28.5069 20.7398C28.7426 21.9182 28.0945 23.0377 26.975 23.3912C26.209 23.6269 25.7966 24.0982 25.6787 24.9231C25.5609 26.0426 24.5004 26.8675 23.3809 26.8675C23.0863 26.8675 22.8506 26.8675 22.556 26.9264C22.0846 27.0442 21.849 27.3977 21.6133 27.7512C21.083 28.694 20.1992 29.1064 19.1386 28.9886C19.0208 28.9886 18.844 28.9296 18.7262 28.8707C18.0192 28.5172 17.3711 28.635 16.7819 29.1653C16.3105 29.5778 15.7213 29.7545 15.1321 29.7545C14.6018 29.7545 14.1305 29.5778 13.7769 29.2242C13.1877 28.635 12.5396 28.5761 11.7737 28.8707C10.7131 29.2832 9.4758 28.8707 8.94552 27.8691C8.53308 27.1031 8.00281 26.8085 7.17793 26.8675C6.05845 26.9264 5.05681 26.0426 4.88006 24.9231C4.76222 24.0982 4.34978 23.6269 3.58382 23.3912C2.46434 23.0377 1.81623 21.8593 2.0519 20.7398C2.22866 19.9738 1.99298 19.4436 1.40379 18.9133C0.46107 18.1473 0.225391 16.91 0.873509 15.8494C1.28595 15.2013 1.28595 14.6121 0.873509 13.9051C0.225391 12.9035 0.46107 11.6072 1.40379 10.9002C2.0519 10.4288 2.22866 9.83963 2.0519 9.07367C1.81623 7.95419 2.46434 6.7758 3.5249 6.42228C4.34978 6.1866 4.7033 5.65632 4.82114 4.83144C4.9979 3.77089 6.05845 2.94601 7.11901 2.94601C7.35469 2.94601 7.59037 2.94601 7.82605 2.88709C8.2974 2.76925 8.592 2.47465 8.82768 2.06221C9.53472 0.824898 10.5953 0.471379 11.8915 0.942737C12.5396 1.17842 13.0699 1.06058 13.6002 0.648138C14.6607 -0.235659 15.8391 -0.235659 16.8408 0.648138C17.3711 1.1195 17.9013 1.23734 18.6084 0.942737C19.8457 0.471379 20.9652 0.883818 21.6722 2.06221C22.0257 2.65141 22.4971 2.94601 23.2041 2.94601C24.6182 2.94601 25.502 3.65305 25.6787 5.06712C25.7966 5.77416 26.209 6.1866 26.8571 6.42228C27.8588 6.71688 28.448 7.60068 28.5069 8.66123ZM7.41361 4.00657C6.47089 4.00657 5.99953 4.36009 5.88169 5.24388C5.70493 6.36336 5.11573 7.01148 4.05518 7.365C3.28922 7.60068 2.9357 8.18987 3.11246 8.95583C3.34814 10.0164 3.05354 10.9002 2.16974 11.6072C1.52163 12.1375 1.40379 12.7856 1.81623 13.5516C2.40542 14.4943 2.40542 15.3781 1.81623 16.3208C1.34487 17.0278 1.46271 17.676 2.16974 18.2062C3.05354 18.9133 3.34814 19.7382 3.11246 20.7987C2.9357 21.5647 3.28922 22.2128 4.05518 22.4485C5.11573 22.802 5.70493 23.4501 5.88169 24.5696C5.99953 25.5123 6.52981 25.8658 7.41361 25.8069C8.47416 25.8069 9.24012 26.2193 9.71148 27.1031C9.82932 27.2799 9.94716 27.5156 10.1239 27.6334C10.5364 27.9869 11.0666 27.9869 11.5969 27.8102C12.5396 27.3977 13.4234 27.5156 14.1894 28.2226C14.9553 28.8707 15.5445 28.8707 16.3105 28.2226C17.0765 27.5745 17.9013 27.4567 18.7851 27.8102C19.7278 28.1637 20.2581 27.9869 20.7884 27.1031C21.2598 26.2193 22.0257 25.8069 23.0274 25.8658C23.9701 25.8658 24.4414 25.5123 24.6182 24.5696C24.795 23.509 25.3841 22.8609 26.3858 22.5074C27.2107 22.2717 27.5642 21.6825 27.3285 20.7987C27.0928 19.7382 27.3874 18.9133 28.2712 18.2062C28.9783 17.676 29.0961 17.0278 28.6247 16.2619C28.0945 15.3781 28.0945 14.4943 28.6247 13.6105C29.0961 12.8445 28.9783 12.1964 28.2712 11.6072C27.4463 10.9591 27.1517 10.1342 27.3874 9.07367C27.5642 8.18987 27.2696 7.6596 26.3858 7.365C25.3841 7.01148 24.795 6.36336 24.6182 5.3028C24.4414 4.36009 24.029 3.94765 23.0274 4.00657C22.0257 4.00657 21.2598 3.59413 20.7295 2.71033C20.2581 1.88545 19.6689 1.64978 18.7851 2.00329C17.9013 2.35681 17.0175 2.18005 16.2516 1.53194C15.5445 0.883818 14.9553 0.883818 14.2483 1.53194C13.4823 2.23897 12.5985 2.35681 11.5969 2.00329C10.772 1.64978 10.1239 1.88545 9.71148 2.71033C9.24012 3.59413 8.47416 4.00657 7.41361 4.00657Z" fill="white"/>
<path d="M15.0732 3.77087C20.3171 3.77087 24.795 7.24714 26.0913 12.1964C26.2091 12.6678 26.268 13.1391 26.3858 13.6105C26.4448 13.964 26.268 14.1997 25.9145 14.2586C25.6199 14.3175 25.3842 14.1408 25.3253 13.7872C25.1485 12.7267 24.9129 11.725 24.4415 10.7234C23.0274 7.77742 20.7295 5.89199 17.5479 5.12603C12.4219 3.88871 7.11907 6.95254 5.58715 12.0196C5.41039 12.6088 5.35147 13.198 5.23363 13.7872C5.17471 14.1997 4.93903 14.3764 4.64444 14.3175C4.29092 14.2586 4.17308 14.0229 4.232 13.6105C4.58552 10.9591 5.70499 8.66122 7.70827 6.8347C9.41694 5.24387 11.4202 4.30115 13.777 3.94763C14.1894 3.82979 14.7197 3.77087 15.0732 3.77087Z" fill="white"/>
<path d="M15.25 26.1015C10.4186 26.1015 6.11743 22.9787 4.64443 18.3241C4.40875 17.6759 4.34983 17.0278 4.23199 16.3208C4.17307 15.9673 4.34983 15.7316 4.64443 15.6727C4.93903 15.6137 5.23363 15.7905 5.29255 16.144C5.46931 17.3224 5.76391 18.4419 6.3531 19.5025C7.94394 22.5074 10.4775 24.3339 13.8359 24.8642C16.8997 25.3355 19.6101 24.5106 21.9669 22.5663C23.8523 20.9754 24.9718 18.9133 25.3842 16.4386C25.3842 16.3208 25.4431 16.2029 25.4431 16.0851C25.502 15.7905 25.7377 15.6137 26.0912 15.6727C26.3858 15.7316 26.5626 15.9673 26.5037 16.2619C26.3858 17.3224 26.0912 18.383 25.6788 19.3257C24.4415 22.0949 22.3793 24.0982 19.6101 25.2177C18.2549 25.7479 16.6052 26.1015 15.25 26.1015Z" fill="white"/>
<path d="M12.4807 20.4452C11.8915 20.4452 11.6558 19.9738 11.8915 19.5025C13.2466 16.7332 14.6607 13.964 16.0158 11.1948C16.4283 10.3699 16.8407 9.54501 17.2532 8.72013C17.4888 8.24877 17.7245 8.13093 18.137 8.30769C18.4905 8.48445 18.5494 8.77905 18.3137 9.30933C16.664 12.6088 15.0142 15.9083 13.3645 19.2079C13.1877 19.5025 13.0699 19.856 12.8931 20.0917C12.7163 20.2684 12.5396 20.3863 12.4807 20.4452Z" fill="white"/>
<path d="M16.3694 16.9689C16.3694 16.5565 16.3694 16.144 16.3694 15.7316C16.4283 14.7299 16.8997 14.1997 17.8424 14.0818C18.3137 14.0229 18.844 14.0818 19.3154 14.1997C19.9635 14.3764 20.317 14.8478 20.3759 15.4959C20.4349 16.4975 20.4349 17.5581 20.3759 18.5597C20.3759 19.2079 19.9635 19.6203 19.3743 19.856C18.7262 20.0917 18.0781 20.0917 17.4299 19.856C16.7818 19.6203 16.4283 19.1489 16.3694 18.5008C16.3694 17.9705 16.3694 17.4403 16.3694 16.9689ZM19.3154 16.9689C19.3154 16.5565 19.3154 16.144 19.3154 15.7316C19.3154 15.2602 19.0208 15.0245 18.4905 14.9656C17.9013 14.9067 17.4889 15.1424 17.4889 15.6137C17.4299 16.4975 17.4299 17.3813 17.4889 18.2651C17.4889 18.7365 17.9013 18.9722 18.4316 18.9722C19.0208 18.9722 19.3154 18.6776 19.3154 18.2062C19.3743 17.7938 19.3154 17.3813 19.3154 16.9689Z" fill="white"/>
<path d="M13.718 11.8429C13.718 12.3143 13.718 12.7267 13.718 13.1981C13.6591 14.0819 13.1877 14.6711 12.3039 14.7889C11.7736 14.8478 11.2433 14.7889 10.772 14.6711C10.1239 14.4943 9.77035 14.0229 9.71143 13.3748C9.65251 12.3732 9.65251 11.3716 9.71143 10.3699C9.77035 9.60396 10.2417 9.1326 10.9487 8.95585C11.5379 8.83801 12.1271 8.83801 12.6574 9.01477C13.3055 9.25044 13.6591 9.7218 13.718 10.4288C13.718 10.8413 13.718 11.3126 13.718 11.8429ZM10.772 11.784C10.772 12.1964 10.772 12.55 10.772 12.9624C10.772 13.5516 11.0666 13.7873 11.7147 13.8462C12.3039 13.8462 12.6574 13.5516 12.6574 12.9624C12.6574 12.1964 12.6574 11.4305 12.6574 10.6645C12.6574 10.0753 12.3039 9.83964 11.7147 9.83964C11.1255 9.83964 10.772 10.1342 10.772 10.6645C10.772 11.018 10.772 11.4305 10.772 11.784Z" fill="white"/>
</svg>
