<svg width="31" height="30" viewBox="0 0 31 30" fill="none" xmlns="http://www.w3.org/2000/svg">
<path d="M19.0312 24.8435C19.1556 24.8435 19.2748 24.7941 19.3627 24.7062C19.4506 24.6183 19.5 24.4991 19.5 24.3747C19.5 23.478 17.625 23.9185 17.625 25.3123C17.625 26.7044 19.5 27.1495 19.5 26.2498C19.5 26.1254 19.4506 26.0062 19.3627 25.9183C19.2748 25.8304 19.1556 25.781 19.0312 25.781C18.9069 25.781 18.7877 25.7316 18.6998 25.6437C18.6119 25.5558 18.5625 25.4366 18.5625 25.3123C18.5625 25.1879 18.6119 25.0687 18.6998 24.9808C18.7877 24.8929 18.9069 24.8435 19.0312 24.8435Z" fill="#F99B2A"/>
<path d="M19.0313 22.031C19.0313 21.7529 18.9488 21.481 18.7943 21.2497C18.6397 21.0185 18.4201 20.8382 18.1632 20.7318C17.9062 20.6254 17.6234 20.5975 17.3507 20.6518C17.0779 20.706 16.8273 20.84 16.6306 21.0366C16.434 21.2333 16.3 21.4839 16.2458 21.7567C16.1915 22.0294 16.2194 22.3122 16.3258 22.5692C16.4322 22.8261 16.6125 23.0457 16.8437 23.2003C17.075 23.3548 17.3469 23.4373 17.625 23.4373C17.9978 23.4368 18.3553 23.2886 18.6189 23.0249C18.8825 22.7613 19.0308 22.4038 19.0313 22.031ZM17.1563 22.031C17.1563 21.9383 17.1837 21.8477 17.2353 21.7706C17.2868 21.6935 17.36 21.6334 17.4456 21.5979C17.5313 21.5625 17.6255 21.5532 17.7165 21.5713C17.8074 21.5894 17.8909 21.634 17.9565 21.6996C18.022 21.7651 18.0667 21.8486 18.0847 21.9396C18.1028 22.0305 18.0936 22.1247 18.0581 22.2104C18.0226 22.296 17.9625 22.3693 17.8854 22.4208C17.8083 22.4723 17.7177 22.4998 17.625 22.4998C17.5007 22.4996 17.3816 22.4502 17.2937 22.3623C17.2058 22.2744 17.1564 22.1553 17.1563 22.031Z" fill="#F99B2A"/>
<path d="M15.2813 25.3123C15.0031 25.3123 14.7312 25.3947 14.5 25.5493C14.2687 25.7038 14.0885 25.9234 13.982 26.1804C13.8756 26.4373 13.8478 26.7201 13.902 26.9929C13.9563 27.2656 14.0902 27.5162 14.2869 27.7129C14.4836 27.9095 14.7341 28.0435 15.0069 28.0977C15.2797 28.152 15.5624 28.1242 15.8194 28.0177C16.0764 27.9113 16.296 27.731 16.4505 27.4998C16.605 27.2685 16.6875 26.9966 16.6875 26.7185C16.6871 26.3457 16.5388 25.9882 16.2752 25.7246C16.0115 25.461 15.6541 25.3127 15.2813 25.3123ZM15.2813 27.1873C15.1885 27.1873 15.0979 27.1598 15.0208 27.1083C14.9437 27.0568 14.8837 26.9835 14.8482 26.8979C14.8127 26.8122 14.8034 26.718 14.8215 26.6271C14.8396 26.5361 14.8842 26.4526 14.9498 26.3871C15.0154 26.3215 15.0989 26.2769 15.1898 26.2588C15.2807 26.2407 15.375 26.25 15.4606 26.2854C15.5463 26.3209 15.6195 26.381 15.671 26.4581C15.7225 26.5352 15.75 26.6258 15.75 26.7185C15.7499 26.8428 15.7004 26.9619 15.6126 27.0498C15.5247 27.1377 15.4055 27.1871 15.2813 27.1873Z" fill="#F99B2A"/>
<path d="M19.6235 28.6579C17.0225 29.5373 14.0975 28.9392 12.0824 27.1387L12.4444 26.1983C13.6961 25.8978 14.2538 24.3576 13.5522 23.3213L14.7903 20.1057C16.8144 20.731 18.0188 17.4903 16.1405 16.5985L17.1562 13.9605L18.5352 17.5418C18.7581 18.1209 19.6329 17.7834 19.4101 17.2049L17.839 13.1247H20.1157L20.6438 14.4965C19.2328 15.6763 20.2134 18.32 22.3445 17.744C22.4043 17.7284 22.4605 17.701 22.5097 17.6635C22.5589 17.6261 22.6003 17.5792 22.6313 17.5257C22.6623 17.4722 22.6825 17.4131 22.6905 17.3517C22.6986 17.2904 22.6945 17.2281 22.6783 17.1683C22.6622 17.1086 22.6344 17.0527 22.5965 17.0037C22.5587 16.9548 22.5115 16.9139 22.4578 16.8832C22.404 16.8526 22.3447 16.833 22.2833 16.8254C22.2219 16.8178 22.1596 16.8224 22.1 16.839C20.86 17.1739 20.5453 15.5409 21.427 15.0975C21.5309 15.0453 21.6117 14.9562 21.6536 14.8477C21.6955 14.7391 21.6956 14.6189 21.6538 14.5103L20.875 12.4875C20.8409 12.3991 20.7809 12.3231 20.7028 12.2695C20.6247 12.2159 20.5322 12.1872 20.4375 12.1872C17.0689 12.1891 16.8768 12.0771 16.7188 12.4875C15.1023 16.8569 14.9186 16.7825 15.1171 17.1287C15.1517 17.1892 15.1993 17.2411 15.2565 17.2809C15.3137 17.3206 15.379 17.3471 15.4477 17.3584C16.4617 17.5252 16.2119 18.736 15.6679 19.1195C15.4109 19.3007 15.1137 19.286 14.7847 19.0759C14.7261 19.0385 14.66 19.0146 14.591 19.0059C14.5221 18.9973 14.4521 19.004 14.386 19.0257C14.32 19.0474 14.2597 19.0835 14.2093 19.1314C14.159 19.1793 14.1199 19.2378 14.095 19.3026L12.5803 23.2366C12.5481 23.3202 12.5406 23.4112 12.5585 23.4989C12.5764 23.5866 12.6191 23.6673 12.6814 23.7316C13.185 24.2502 12.8461 25.2623 12.0759 25.309C11.9861 25.3145 11.8999 25.3456 11.8273 25.3987C11.7548 25.4518 11.6991 25.5246 11.6668 25.6085L11.0938 27.0974C11.0608 27.183 11.0537 27.2765 11.0734 27.3662C11.0931 27.4559 11.1386 27.5378 11.2045 27.6018C13.5424 29.8752 16.9431 30.5539 19.9238 29.5462C20.0415 29.5063 20.1386 29.4214 20.1938 29.3099C20.2489 29.1985 20.2575 29.0697 20.2177 28.952C20.1778 28.8342 20.0929 28.7371 19.9814 28.6819C19.87 28.6268 19.7412 28.6182 19.6235 28.6581V28.6579Z" fill="#F99B2A"/>
<path d="M30.2812 18.7498C29.8427 18.7498 21.1982 18.7498 19.9687 18.7498C19.8444 18.7498 19.7252 18.7991 19.6373 18.887C19.5494 18.975 19.5 19.0942 19.5 19.2185C19.5 19.3428 19.5494 19.4621 19.6373 19.55C19.7252 19.6379 19.8444 19.6873 19.9687 19.6873H20.4785L21.3772 29.5734C21.3878 29.6899 21.4415 29.7982 21.5278 29.877C21.6142 29.9559 21.7268 29.9997 21.8437 29.9998H28.4062C28.5232 29.9998 28.636 29.956 28.7223 29.8771C28.8087 29.7982 28.8625 29.6899 28.8731 29.5734L29.2141 25.8193C29.2205 25.7576 29.2146 25.6952 29.1968 25.6357C29.1789 25.5763 29.1494 25.5209 29.1099 25.473C29.0705 25.425 29.0219 25.3854 28.9671 25.3564C28.9122 25.3273 28.8521 25.3095 28.7903 25.3039C28.7284 25.2983 28.6661 25.305 28.6069 25.3236C28.5477 25.3423 28.4928 25.3726 28.4453 25.4126C28.3979 25.4527 28.3589 25.5018 28.3306 25.557C28.3023 25.6123 28.2853 25.6726 28.2805 25.7345L27.9781 29.0623H22.2718L21.4195 19.6873H28.8305L28.6203 22.0009C28.6099 22.1242 28.6487 22.2467 28.7283 22.3415C28.8078 22.4364 28.9217 22.4959 29.045 22.5071C29.1682 22.5183 29.291 22.4803 29.3863 22.4013C29.4817 22.3224 29.5419 22.2089 29.5539 22.0857L29.7718 19.6873H30.2812C30.4056 19.6873 30.5248 19.6379 30.6127 19.55C30.7006 19.4621 30.75 19.3428 30.75 19.2185C30.75 19.0942 30.7006 18.975 30.6127 18.887C30.5248 18.7991 30.4056 18.7498 30.2812 18.7498Z" fill="#EE2E24"/>
<path d="M17.1566 11.2402C17.2169 11.2526 17.2791 11.2529 17.3395 11.2412C17.3999 11.2296 17.4575 11.2061 17.5089 11.1722C17.5602 11.1383 17.6044 11.0946 17.6389 11.0436C17.6734 10.9926 17.6975 10.9353 17.7098 10.875C17.9163 9.86349 18.4865 8.96282 19.3125 8.34351C19.3303 8.3302 19.347 8.31565 19.3627 8.29997C19.9851 7.67724 20.0767 6.51022 18.8749 5.5054C18.6561 5.32247 18.5771 5.01321 18.6405 4.83884C18.6557 4.79718 18.6944 4.68649 18.9628 4.68726C24.6396 4.7953 24.9243 4.52091 25.0434 4.84628C25.1063 5.01802 25.0359 5.31878 24.8127 5.5054C24.2196 6.00128 23.9061 6.53976 23.8811 7.10571C23.856 7.66569 24.1607 8.18255 24.3752 8.34345C24.8979 8.73757 25.3223 9.24737 25.615 9.83292C25.9077 10.4185 26.0609 11.0639 26.0625 11.7185C26.0625 11.8428 26.1119 11.9621 26.1998 12.05C26.2877 12.1379 26.4069 12.1873 26.5313 12.1873C26.6556 12.1873 26.7748 12.1379 26.8627 12.05C26.9506 11.9621 27 11.8428 27 11.7185C26.9981 10.9266 26.8146 10.1456 26.4638 9.43561C26.113 8.72562 25.6041 8.10547 24.9762 7.6228C24.5932 7.14784 24.9479 6.61423 25.414 6.22452C26.2624 5.51519 26.2128 4.09605 25.125 3.80032V0.468506C25.125 0.344186 25.0756 0.224957 24.9877 0.13705C24.8998 0.0491419 24.7806 -0.000244141 24.6563 -0.000244141L19.0313 -0.000244141C18.9069 -0.000244141 18.7877 0.0491419 18.6998 0.13705C18.6119 0.224957 18.5625 0.344186 18.5625 0.468506V3.79997C17.4636 4.09294 17.4235 5.51384 18.2735 6.22458C18.7458 6.61944 19.0915 7.15101 18.7113 7.6228C17.7223 8.37896 17.0403 9.46746 16.7913 10.6873C16.7665 10.809 16.791 10.9357 16.8595 11.0393C16.928 11.143 17.0349 11.2153 17.1566 11.2402ZM19.5 0.937256H24.1875V1.87476H20.9063C20.7819 1.87476 20.6627 1.92414 20.5748 2.01205C20.4869 2.09996 20.4375 2.21919 20.4375 2.34351C20.4375 2.46783 20.4869 2.58705 20.5748 2.67496C20.6627 2.76287 20.7819 2.81226 20.9063 2.81226H24.1875V3.74976H19.5V0.937256Z" fill="#EE2E24"/>
<path d="M5.90625 22.031C5.90625 21.9067 5.85686 21.7874 5.76896 21.6995C5.68105 21.6116 5.56182 21.5622 5.4375 21.5622C4.94039 21.5617 4.4638 21.364 4.11229 21.0124C3.76078 20.6609 3.56306 20.1843 3.5625 19.6872C3.5625 18.9739 4.59768 17.3565 5.4375 16.2347C6.27732 17.3561 7.3125 18.973 7.3125 19.6872C7.3125 19.8116 7.36189 19.9308 7.44979 20.0187C7.5377 20.1066 7.65693 20.156 7.78125 20.156C7.90557 20.156 8.0248 20.1066 8.11271 20.0187C8.20061 19.9308 8.25 19.8116 8.25 19.6872C8.25 18.2693 6.05373 15.4878 5.8033 15.1755C5.75938 15.1207 5.70371 15.0765 5.64039 15.0461C5.57707 15.0157 5.50774 14.9999 5.4375 14.9999C5.36726 14.9999 5.29793 15.0157 5.23461 15.0461C5.17129 15.0765 5.11562 15.1207 5.0717 15.1755C4.82127 15.4878 2.625 18.2693 2.625 19.6872C2.625 22.2717 5.90625 23.1626 5.90625 22.031Z" fill="#F99B2A"/>
<path d="M11.5312 29.0623H10.125V8.09835L12.4746 4.18282L14.8323 8.09876V12.656C14.8323 12.7803 14.8817 12.8996 14.9696 12.9875C15.0575 13.0754 15.1767 13.1248 15.3011 13.1248C15.4254 13.1248 15.5446 13.0754 15.6325 12.9875C15.7204 12.8996 15.7698 12.7803 15.7698 12.656V7.96851C15.7698 7.72991 15.7924 7.92105 12.9378 3.13452V0.468506C12.9378 0.344186 12.8884 0.224957 12.8005 0.13705C12.7126 0.0491419 12.5934 -0.000244141 12.469 -0.000244141L4.03125 -0.000244141C3.90693 -0.000244141 3.7877 0.0491419 3.69979 0.13705C3.61189 0.224957 3.5625 0.344186 3.5625 0.468506V3.15122L3.1875 3.77642C3.15506 3.82922 3.13341 3.88794 3.12381 3.94916C3.11421 4.01039 3.11684 4.07291 3.13156 4.13311C3.14628 4.19332 3.17279 4.25 3.20956 4.29989C3.24633 4.34978 3.29263 4.39188 3.34577 4.42376C3.39892 4.45564 3.45786 4.47667 3.51919 4.48562C3.58051 4.49457 3.643 4.49127 3.70304 4.47592C3.76309 4.46056 3.81949 4.43345 3.86898 4.39616C3.91848 4.35886 3.96009 4.31212 3.99141 4.25864L4.29668 3.74976H11.6409L9.39088 7.49976H7.78125C7.65693 7.49976 7.5377 7.54914 7.44979 7.63705C7.36189 7.72496 7.3125 7.84419 7.3125 7.96851C7.3125 8.09283 7.36189 8.21206 7.44979 8.29996C7.5377 8.38787 7.65693 8.43726 7.78125 8.43726H9.1875V12.1873H1.6875V8.43726H5.90625C6.03057 8.43726 6.1498 8.38787 6.23771 8.29996C6.32561 8.21206 6.375 8.09283 6.375 7.96851C6.375 7.84419 6.32561 7.72496 6.23771 7.63705C6.1498 7.54914 6.03057 7.49976 5.90625 7.49976H2.04656L2.0625 7.4731C2.12488 7.36656 2.14272 7.23971 2.11213 7.1201C2.08154 7.00048 2.00499 6.89777 1.89912 6.83426C1.79325 6.77075 1.66659 6.75158 1.54667 6.7809C1.42674 6.81022 1.32322 6.88567 1.25859 6.99087C0.793652 7.76677 0.75 7.79554 0.75 7.96851V29.531C0.75 29.6553 0.799386 29.7746 0.887294 29.8625C0.975201 29.9504 1.09443 29.9998 1.21875 29.9998H11.5312C11.6556 29.9998 11.7748 29.9504 11.8627 29.8625C11.9506 29.7746 12 29.6553 12 29.531C12 29.4067 11.9506 29.2875 11.8627 29.1995C11.7748 29.1116 11.6556 29.0623 11.5312 29.0623ZM4.5 2.81226V0.937256H12V2.81226H4.5ZM9.1875 29.0623H1.6875V25.3123H9.1875V29.0623ZM9.1875 24.3748H1.6875V13.1248H9.1875V24.3748Z" fill="#EE2E24"/>
<path d="M2.625 6.09351C2.88388 6.09351 3.09375 5.88364 3.09375 5.62476C3.09375 5.36587 2.88388 5.15601 2.625 5.15601C2.36612 5.15601 2.15625 5.36587 2.15625 5.62476C2.15625 5.88364 2.36612 6.09351 2.625 6.09351Z" fill="#EE2E24"/>
<path d="M7.3125 22.031C7.57138 22.031 7.78125 21.8211 7.78125 21.5623C7.78125 21.3034 7.57138 21.0935 7.3125 21.0935C7.05362 21.0935 6.84375 21.3034 6.84375 21.5623C6.84375 21.8211 7.05362 22.031 7.3125 22.031Z" fill="#F99B2A"/>
<path d="M26.5312 14.0623C26.7901 14.0623 27 13.8524 27 13.5935C27 13.3346 26.7901 13.1248 26.5312 13.1248C26.2724 13.1248 26.0625 13.3346 26.0625 13.5935C26.0625 13.8524 26.2724 14.0623 26.5312 14.0623Z" fill="#EE2E24"/>
<path d="M28.875 24.3748C29.1339 24.3748 29.3438 24.1649 29.3438 23.906C29.3438 23.6471 29.1339 23.4373 28.875 23.4373C28.6161 23.4373 28.4062 23.6471 28.4062 23.906C28.4062 24.1649 28.6161 24.3748 28.875 24.3748Z" fill="#EE2E24"/>
<path d="M26.5312 14.9998C26.4069 14.9998 26.2877 15.0491 26.1998 15.137C26.1119 15.225 26.0625 15.3442 26.0625 15.4685V17.3435C26.0625 17.4678 26.1119 17.5871 26.1998 17.675C26.2877 17.7629 26.4069 17.8123 26.5312 17.8123C26.6556 17.8123 26.7748 17.7629 26.8627 17.675C26.9506 17.5871 27 17.4678 27 17.3435V15.4685C27 15.3442 26.9506 15.225 26.8627 15.137C26.7748 15.0491 26.6556 14.9998 26.5312 14.9998Z" fill="#EE2E24"/>
</svg>
