<svg width="36" height="36" viewBox="0 0 36 36" fill="none" xmlns="http://www.w3.org/2000/svg">
<path d="M13.52 36C12.8 35.73 12.26 35.28 12.17 34.56C12.17 34.38 12.17 34.29 12.17 34.11C12.17 31.41 12.17 28.71 12.17 26.01C12.17 25.38 12.35 24.93 12.8 24.48C12.89 24.39 12.89 24.3 12.89 24.12C12.89 22.41 12.89 20.79 12.89 19.08C12.89 18.99 12.8 18.81 12.71 18.72C12.35 18.36 12.17 17.91 12.17 17.28C12.17 15.57 12.17 13.86 12.17 12.15C12.17 10.98 12.71 10.08 13.79 9.54001C14.69 9.09001 14.96 8.37002 14.96 7.29001C14.96 7.20002 14.87 7.11001 14.78 7.11001C14.33 6.84001 14.15 6.57001 14.15 6.03001C14.15 5.76001 14.15 5.40001 14.15 5.13001C14.15 4.59001 14.6 4.14001 15.14 4.14001C16.94 4.14001 18.74 4.14001 20.54 4.14001C21.08 4.14001 21.53 4.59001 21.53 5.13001C21.53 5.40001 21.53 5.67001 21.53 5.94001C21.53 6.48001 21.35 6.84001 20.9 7.11001C20.81 7.11001 20.72 7.29001 20.72 7.38001C20.72 8.28001 20.99 9.09001 21.89 9.63001C22.88 10.17 23.42 11.07 23.42 12.24C23.42 13.95 23.42 15.66 23.42 17.37C23.42 17.91 23.24 18.36 22.88 18.72C22.79 18.81 22.7 18.99 22.7 19.08C22.7 20.7 22.7 22.41 22.7 24.03C22.7 24.21 22.79 24.3 22.88 24.48C23.24 24.84 23.42 25.29 23.42 25.83C23.42 28.62 23.42 31.41 23.42 34.2C23.42 35.19 22.88 35.73 21.98 36C19.19 36 16.4 36 13.52 36ZM22.43 30.42C22.25 30.42 22.16 30.42 21.98 30.42C20.54 30.42 19.1 30.42 17.66 30.42C17.48 30.42 17.21 30.42 17.03 30.42C16.76 30.42 16.58 30.24 16.58 29.97C16.58 29.7 16.76 29.52 17.03 29.43C17.12 29.43 17.3 29.43 17.39 29.43C18.92 29.43 20.54 29.43 22.07 29.43C22.16 29.43 22.34 29.43 22.43 29.43C22.43 29.07 22.43 28.71 22.43 28.44C19.37 28.44 16.31 28.44 13.25 28.44C13.25 28.8 13.25 29.07 13.25 29.43C13.7 29.43 14.15 29.43 14.6 29.43C15.05 29.43 15.32 29.88 15.05 30.24C14.96 30.33 14.69 30.42 14.51 30.51C14.06 30.51 13.7 30.51 13.25 30.51C13.25 31.86 13.25 33.12 13.25 34.38C13.25 34.74 13.52 35.01 13.97 35.01C16.58 35.01 19.19 35.01 21.71 35.01C22.16 35.01 22.43 34.74 22.43 34.38C22.43 33.03 22.43 31.68 22.43 30.42ZM22.34 12.87C22.52 11.79 22.16 10.98 21.26 10.53C20.45 10.08 20 9.45001 19.82 8.55001C19.73 8.19001 19.73 7.74001 19.64 7.38001C18.38 7.38001 17.21 7.38001 15.95 7.38001C15.95 7.56001 15.95 7.65001 15.95 7.83001C15.86 9.09001 15.41 10.08 14.24 10.62C13.43 11.07 13.07 11.97 13.25 12.96C16.31 12.87 19.28 12.87 22.34 12.87ZM21.62 19.17C19.01 19.17 16.49 19.17 13.88 19.17C13.88 20.88 13.88 22.5 13.88 24.21C16.49 24.21 19.01 24.21 21.62 24.21C21.62 22.5 21.62 20.79 21.62 19.17ZM22.43 16.02C19.37 16.02 16.31 16.02 13.25 16.02C13.25 16.47 13.25 16.92 13.25 17.46C13.25 17.91 13.52 18.09 13.88 18.09C16.49 18.09 19.19 18.09 21.8 18.09C22.25 18.09 22.43 17.91 22.43 17.46C22.43 17.01 22.43 16.56 22.43 16.02ZM22.34 27.18C22.34 26.64 22.34 26.19 22.34 25.74C22.34 25.38 22.07 25.2 21.71 25.2C19.01 25.2 16.4 25.2 13.7 25.2C13.34 25.2 13.16 25.38 13.16 25.65C13.16 26.19 13.16 26.64 13.16 27.18C16.31 27.18 19.28 27.18 22.34 27.18ZM22.34 13.95C19.28 13.95 16.22 13.95 13.16 13.95C13.16 14.31 13.16 14.67 13.16 14.94C16.22 14.94 19.28 14.94 22.34 14.94C22.34 14.58 22.34 14.31 22.34 13.95ZM15.14 6.21001C16.94 6.21001 18.65 6.21001 20.45 6.21001C20.45 5.85001 20.45 5.58001 20.45 5.31001C18.65 5.31001 16.94 5.31001 15.14 5.31001C15.14 5.58001 15.14 5.85001 15.14 6.21001Z" fill="#EE2E24"/>
<path d="M8.11998 0C8.65998 0.27 8.83999 0.72 8.74999 1.26C8.74999 1.8 8.74999 2.34 8.74999 2.88C8.74999 3.24 8.65998 3.42 8.38999 3.69C8.29998 3.69 8.20998 3.87 8.20998 3.96C8.20998 5.04 8.20998 6.21 8.20998 7.29C8.20998 7.92 8.38999 8.46 8.74999 9C9.19999 9.63 9.64999 10.26 10.19 10.89C10.91 11.88 11.18 12.96 11.18 14.13C11.18 20.79 11.18 27.45 11.18 34.02C11.18 35.1 10.91 35.46 9.91998 35.91C7.03998 35.91 4.15999 35.91 1.27999 35.91C0.559985 35.73 0.109985 35.19 0.109985 34.29C0.109985 27.45 0.109985 20.61 0.109985 13.77C0.109985 13.23 0.199985 12.6 0.469985 12.06C1.00999 11.07 1.63999 10.17 2.35999 9.27C2.53999 9 2.80999 9 3.07999 9.18C3.34999 9.36 3.34999 9.63 3.25999 9.9C3.16999 9.99 3.07999 10.17 2.98999 10.26C2.62999 10.8 2.26999 11.25 1.90999 11.79C1.18999 12.78 1.18999 13.86 1.27999 15.03C4.24999 15.03 7.21999 15.03 10.19 15.03C10.37 13.68 10.19 12.51 9.37998 11.43C8.92999 10.8 8.47999 10.26 8.02999 9.63C7.48999 9 7.21999 8.37 7.21999 7.74C7.21999 6.75 7.21999 5.76 7.21999 4.77C7.21999 4.5 7.21999 4.14 7.21999 3.78C6.22999 3.78 5.23999 3.78 4.15999 3.78C4.15999 4.41 4.15999 4.95 4.15999 5.58C4.15999 6.21 4.15999 6.75 4.15999 7.38C4.15999 7.65 3.97999 7.83 3.70999 7.92C3.43999 7.92 3.16999 7.74 3.16999 7.47C3.16999 7.38 3.16999 7.2 3.16999 7.11C3.16999 6.12 3.16999 5.04 3.16999 4.05C3.16999 3.87 3.07999 3.78 2.98999 3.6C2.80999 3.33 2.62999 3.06 2.53999 2.88C2.44999 2.34 2.53999 1.8 2.53999 1.26C2.53999 0.72 2.71999 0.27 3.16999 0C4.87999 0 6.49998 0 8.11998 0ZM1.18999 28.26C1.18999 28.35 1.18999 28.53 1.18999 28.62C1.18999 30.51 1.18999 32.31 1.18999 34.2C1.18999 34.74 1.36999 34.92 1.90999 34.92C4.42999 34.92 6.94999 34.92 9.46999 34.92C10.1 34.92 10.19 34.83 10.19 34.2C10.19 32.31 10.19 30.51 10.19 28.62C10.19 28.53 10.19 28.35 10.19 28.26C7.12998 28.26 4.15999 28.26 1.18999 28.26ZM10.1 17.91C7.12999 17.91 4.15999 17.91 1.18999 17.91C1.18999 20.34 1.18999 22.86 1.18999 25.29C4.15999 25.29 7.12999 25.29 10.1 25.29C10.1 22.86 10.1 20.43 10.1 17.91ZM1.18999 16.83C4.15999 16.83 7.12999 16.83 10.1 16.83C10.1 16.56 10.1 16.29 10.1 16.02C7.12999 16.02 4.15999 16.02 1.18999 16.02C1.18999 16.29 1.18999 16.56 1.18999 16.83ZM10.1 26.37C7.12999 26.37 4.15999 26.37 1.18999 26.37C1.18999 26.64 1.18999 26.91 1.18999 27.18C4.15999 27.18 7.12999 27.18 10.1 27.18C10.1 26.91 10.1 26.73 10.1 26.37ZM3.61999 1.08C3.61999 1.62 3.61999 2.16 3.61999 2.7C4.96999 2.7 6.31998 2.7 7.66998 2.7C7.66998 2.16 7.66998 1.62 7.66998 1.08C6.31998 1.08 4.96999 1.08 3.61999 1.08Z" fill="#EE2E24"/>
<path d="M25.3999 36C24.5899 35.73 24.3199 35.19 24.3199 34.29C24.3199 28.35 24.3199 22.32 24.3199 16.38C24.3199 15.84 24.4999 15.39 24.9499 15.03C25.0399 14.94 25.0399 14.85 25.0399 14.76C25.0399 14.4 25.0399 14.13 25.0399 13.77C25.0399 13.23 25.3999 12.87 25.9399 12.78C26.2099 12.78 26.5699 12.78 26.8399 12.78C27.1099 12.78 27.3799 13.05 27.3799 13.32C27.3799 13.59 27.1999 13.86 26.8399 13.86C26.5699 13.86 26.3899 13.86 26.1199 13.86C26.1199 14.22 26.1199 14.49 26.1199 14.85C28.5499 14.85 30.9799 14.85 33.4999 14.85C33.4999 14.49 33.4999 14.22 33.4999 13.86C33.3199 13.86 33.2299 13.86 33.1399 13.86C31.9699 13.86 30.7099 13.86 29.5399 13.86C29.4499 13.86 29.3599 13.86 29.1799 13.86C28.8199 13.86 28.6399 13.59 28.6399 13.32C28.6399 13.05 28.8199 12.78 29.1799 12.78C29.6299 12.78 30.0799 12.78 30.4399 12.78C31.4299 12.78 32.4199 12.78 33.3199 12.78C34.0399 12.78 34.4899 13.14 34.4899 13.95C34.4899 14.13 34.4899 14.22 34.4899 14.4C34.4899 14.76 34.4899 14.94 34.8499 15.21C35.2099 15.48 35.2099 15.84 35.2099 16.29C35.2099 19.35 35.2099 22.41 35.2099 25.56C35.2099 28.44 35.2099 31.32 35.2099 34.2C35.2099 35.01 34.9399 35.64 34.1299 36C31.3399 36 28.3699 36 25.3999 36ZM34.3099 25.83C33.7699 25.83 33.2299 25.83 32.6899 25.83C32.5999 25.83 32.5099 25.92 32.5099 26.01C31.1599 27.63 28.6399 27.63 27.3799 26.01C27.2899 25.92 27.1999 25.83 27.1999 25.83C26.6599 25.83 26.1199 25.83 25.5799 25.83C25.5799 28.26 25.5799 30.6 25.5799 32.94C28.5499 32.94 31.5199 32.94 34.4899 32.94C34.3099 30.51 34.3099 28.17 34.3099 25.83ZM25.3999 21.87C25.9399 21.87 26.4799 21.87 27.0199 21.87C27.1099 21.87 27.1999 21.78 27.2899 21.69C28.7299 20.16 30.9799 20.16 32.4199 21.69C32.5099 21.78 32.5999 21.87 32.6899 21.87C33.2299 21.87 33.7699 21.87 34.3099 21.87C34.3099 21.78 34.3099 21.78 34.3099 21.69C34.3099 19.89 34.3099 18.09 34.3099 16.29C34.3099 16.02 34.1299 15.93 33.8599 15.93C31.1599 15.93 28.4599 15.93 25.7599 15.93C25.3999 15.93 25.3099 16.02 25.3099 16.38C25.3099 18.09 25.3099 19.8 25.3099 21.51C25.3999 21.6 25.3999 21.69 25.3999 21.87ZM29.8999 21.6C28.6399 21.6 27.6499 22.59 27.6499 23.85C27.6499 25.11 28.6399 26.1 29.8999 26.1C31.1599 26.1 32.1499 25.11 32.1499 23.85C32.1499 22.59 31.1599 21.6 29.8999 21.6ZM25.3999 34.02C25.3999 34.11 25.3999 34.2 25.3999 34.29C25.3999 34.92 25.3999 34.92 26.0299 34.92C27.9199 34.92 29.7199 34.92 31.6099 34.92C32.3299 34.92 33.1399 34.92 33.8599 34.92C34.0399 34.92 34.2199 34.83 34.2199 34.65C34.2199 34.47 34.2199 34.2 34.2199 34.02C31.3399 34.02 28.3699 34.02 25.3999 34.02ZM34.3099 24.75C34.3099 24.12 34.3099 23.49 34.3099 22.95C33.8599 22.95 33.4999 22.95 33.1399 22.95C33.1399 23.58 33.1399 24.12 33.1399 24.75C33.4999 24.75 33.8599 24.75 34.3099 24.75ZM25.3999 22.95C25.3999 23.58 25.3999 24.21 25.3999 24.75C25.8499 24.75 26.2099 24.75 26.5699 24.75C26.5699 24.12 26.5699 23.58 26.5699 22.95C26.2099 22.95 25.8499 22.95 25.3999 22.95Z" fill="#F99B2A"/>
<path d="M17.75 21.33C17.39 21.33 16.94 21.33 16.58 21.33C16.22 21.33 15.95 21.15 15.95 20.79C15.95 20.52 16.13 20.25 16.49 20.25C17.3 20.25 18.11 20.25 18.92 20.25C19.28 20.25 19.55 20.43 19.46 20.79C19.46 21.06 19.28 21.24 18.83 21.33C18.56 21.33 18.2 21.33 17.75 21.33Z" fill="#F99B2A"/>
<path d="M17.75 23.13C17.48 23.13 17.3 23.13 17.03 23.13C16.76 23.13 16.58 22.95 16.58 22.68C16.58 22.41 16.76 22.14 17.03 22.14C17.57 22.14 18.02 22.14 18.56 22.14C18.92 22.14 19.1 22.41 19.01 22.68C19.01 22.95 18.83 23.13 18.47 23.22C18.38 23.22 18.2 23.22 18.11 23.22C18.02 23.13 17.93 23.13 17.75 23.13Z" fill="#F99B2A"/>
<path d="M4.60998 20.43C5.32998 19.98 5.95998 19.98 6.58998 20.43C7.39998 19.98 8.20998 19.89 8.83998 20.7C9.28998 21.24 9.28998 22.14 8.74998 22.68C8.20998 23.31 7.39998 23.31 6.58998 22.86C5.95998 23.31 5.23998 23.31 4.60998 22.86C3.88998 23.4 2.98998 23.4 2.35998 22.68C1.90998 22.14 1.90998 21.24 2.44998 20.7C3.07998 19.98 3.79998 19.98 4.60998 20.43ZM4.06998 21.6C4.06998 21.33 3.88998 21.15 3.61998 21.15C3.34998 21.15 3.07998 21.33 3.07998 21.6C3.07998 21.87 3.25998 22.05 3.52998 22.05C3.88998 22.14 4.06998 21.87 4.06998 21.6ZM6.13998 21.6C6.13998 21.33 5.86998 21.15 5.59998 21.15C5.32998 21.15 5.14998 21.33 5.14998 21.6C5.14998 21.87 5.41998 22.05 5.68998 22.05C5.95998 22.05 6.13998 21.87 6.13998 21.6ZM7.21998 21.6C7.21998 21.87 7.39998 22.05 7.66998 22.05C7.93998 22.05 8.11998 21.87 8.11998 21.6C8.11998 21.33 7.93998 21.15 7.66998 21.15C7.39998 21.15 7.21998 21.33 7.21998 21.6Z" fill="#F99B2A"/>
<path d="M29.81 29.79C29.27 29.79 28.64 29.79 28.1 29.79C27.65 29.79 27.47 29.61 27.47 29.25C27.47 28.89 27.74 28.71 28.1 28.71C29.27 28.71 30.44 28.71 31.61 28.71C31.97 28.71 32.24 28.89 32.24 29.25C32.24 29.61 31.97 29.79 31.61 29.79C31.07 29.79 30.44 29.79 29.81 29.79Z" fill="#EE2E24"/>
</svg>
