<svg width="32" height="34" viewBox="0 0 32 34" fill="none" xmlns="http://www.w3.org/2000/svg">
<g clip-path="url(#clip0_1_484)">
<path d="M2.72209 34C2.66233 33.9735 2.6092 33.9469 2.54944 33.927C1.54006 33.6215 0.922485 32.8047 0.922485 31.7489C0.922485 27.6981 0.922485 23.6473 0.922485 19.5965C0.922485 15.7383 0.929126 11.8735 0.929126 8.01527C0.929126 7.33128 1.13499 6.7137 1.67952 6.27542C1.94514 6.05628 2.27717 5.90355 2.60256 5.78402C2.84827 5.69769 2.94124 5.60472 2.94788 5.32581C2.98108 3.65902 4.01702 2.40394 5.59085 2.09183C6.84592 1.83949 8.15413 2.3973 8.87795 3.47972C8.93772 3.57269 8.99749 3.66566 9.06389 3.78519C9.17678 3.75863 9.28967 3.7387 9.40256 3.7055C12.278 2.83558 15.1533 1.95902 18.0287 1.0891C18.135 1.05589 18.2412 1.02269 18.3475 0.996126C18.653 0.936361 18.9053 1.07581 18.9783 1.34144C19.0514 1.6137 18.9119 1.86605 18.6131 1.95902C17.9955 2.15824 17.3647 2.33753 16.7405 2.53011C13.7455 3.43988 10.7573 4.343 7.76233 5.25277C7.70256 5.27269 7.63616 5.29925 7.55647 5.33245C7.55647 6.33519 7.55647 7.33792 7.55647 8.3473C7.55647 9.21058 7.55647 10.0739 7.55647 10.9371C7.55647 12.0528 6.97873 12.916 6.01584 13.2614C5.04631 13.6067 4.07678 13.2946 3.36624 12.418C3.33967 12.3848 3.30647 12.3582 3.20686 12.252C3.31311 12.6106 3.38616 12.8828 3.46584 13.1551C4.15647 15.4395 4.85374 17.7239 5.54436 20.0016C5.54436 20.0149 5.551 20.0215 5.551 20.0348C5.67717 20.4532 5.57092 20.7254 5.25217 20.825C4.9467 20.918 4.71428 20.7453 4.58147 20.3137C4.41545 19.7758 4.25608 19.2313 4.0967 18.6934C3.41936 16.4621 2.74202 14.2309 2.06467 11.9996C2.03147 11.9 1.99827 11.8004 1.91194 11.7075C1.91194 11.8137 1.91194 11.9133 1.91194 12.0196C1.91194 18.5739 1.91194 25.1215 1.91194 31.6758C1.91194 32.5059 2.3967 32.9973 3.22678 32.9973C9.70139 32.9973 16.176 32.9973 22.6506 32.9973C23.3612 32.9973 23.7795 32.6653 23.9522 31.968C24.0385 31.6227 24.2709 31.4633 24.5764 31.5364C24.8553 31.6028 25.0014 31.8618 24.9283 32.1871C24.7557 33.0106 24.2776 33.575 23.4873 33.8739C23.3744 33.9137 23.2615 33.9602 23.1553 34C16.3553 34 9.54202 34 2.72209 34ZM8.0678 4.11058C7.52991 3.2473 6.54709 2.86878 5.59085 3.12777C4.62795 3.38675 3.97053 4.22347 3.95725 5.29261C3.93733 7.20511 3.94397 9.12425 3.95725 11.0368C3.96389 11.827 4.51506 12.3848 5.25217 12.3848C5.99592 12.3848 6.56038 11.8004 6.56038 11.0102C6.56702 9.15081 6.56038 7.29144 6.56038 5.43206C6.56038 5.08011 6.42092 4.90081 6.1553 4.90081C5.88967 4.90081 5.75686 5.07347 5.75686 5.43206C5.75686 6.52777 5.75686 7.62347 5.75686 8.71917C5.75686 9.21722 5.7635 9.71527 5.75022 10.2133C5.73694 10.625 5.40491 10.8707 5.05959 10.7313C4.79397 10.6184 4.74084 10.3926 4.74084 10.1336C4.74749 8.53988 4.75413 6.94613 4.75413 5.35238C4.75413 4.74808 4.98655 4.29652 5.53108 4.03753C6.08225 3.77855 6.60022 3.8516 7.08499 4.23675C7.16467 4.29652 7.30413 4.32972 7.40374 4.3098C7.62952 4.26331 7.83538 4.18363 8.0678 4.11058ZM2.92795 6.79339C2.20413 6.86644 1.79241 7.55706 2.01819 8.32738C2.27717 9.20394 2.54944 10.0805 2.81506 10.9571C2.83499 11.0168 2.86819 11.0766 2.92795 11.2028C2.92795 9.68206 2.92795 8.23441 2.92795 6.79339Z" fill="#EE2E24"/>
<path d="M22.312 0C22.3386 0.0132813 22.3651 0.0398437 22.3983 0.0464844C23.2948 0.252344 23.8327 0.816797 24.0983 1.68672C26.3229 9.02461 28.5475 16.3559 30.7722 23.6937C30.8917 24.0855 31.0311 24.4773 31.071 24.8824C31.1706 25.9383 30.5397 26.8281 29.4839 27.1602C28.1026 27.5918 26.7147 28.0102 25.3268 28.4152C25.0546 28.4949 24.955 28.6078 24.9749 28.8934C25.0015 29.2586 24.9882 29.6238 24.9749 29.9891C24.9683 30.3078 24.7757 30.5004 24.4901 30.5004C24.2112 30.5004 23.9987 30.3078 23.9854 29.9957C23.9722 29.6238 23.9854 29.2453 23.9854 28.8336C23.1487 29.0859 22.3452 29.325 21.5483 29.5707C17.9889 30.6531 14.4229 31.7289 10.8636 32.8113C9.48894 33.223 8.34676 32.6188 7.93504 31.2574C7.05847 28.3621 6.18191 25.4668 5.31199 22.5648C5.25886 22.3988 5.23894 22.1664 5.31863 22.0336C5.39168 21.9008 5.63074 21.768 5.76355 21.7945C5.92957 21.8277 6.14207 21.9937 6.20847 22.1531C6.39441 22.6113 6.51394 23.0961 6.66004 23.5742C7.40379 26.0246 8.14754 28.4816 8.89129 30.932C9.15691 31.802 9.71473 32.1074 10.5913 31.8484C16.0698 30.1949 21.5417 28.5348 27.0202 26.8746C27.7175 26.6621 28.4147 26.4563 29.112 26.2371C29.9354 25.9781 30.2475 25.3871 30.0018 24.5703C27.7241 17.0664 25.453 9.5625 23.1753 2.05859C22.903 1.16211 22.3253 0.856641 21.4222 1.13555C21.1565 1.21523 20.8975 1.30156 20.6253 1.37461C20.3065 1.46094 20.0475 1.32812 19.9612 1.04922C19.8749 0.776953 20.0276 0.517969 20.3397 0.411719C20.7581 0.272266 21.1765 0.146094 21.5948 0.0132813C21.8272 0 22.0663 0 22.312 0Z" fill="#EE2E24"/>
<path d="M13.4865 8.14811C13.8053 8.16803 14.1174 8.16139 14.4162 8.22115C14.8146 8.30084 14.9873 8.59303 14.9076 8.94498C14.8213 9.31686 14.5822 9.42311 14.1572 9.40983C13.8053 9.39655 13.44 9.46295 13.1014 9.55592C12.849 9.62233 12.7096 9.83483 12.7494 10.1204C12.7893 10.4126 12.9619 10.5852 13.2408 10.6184C13.6592 10.6715 14.0775 10.7047 14.4893 10.7512C16.1959 10.9438 16.6142 13.0489 15.9568 13.8989C15.8771 14.0051 15.7975 14.118 15.6978 14.1977C15.4853 14.3505 15.3658 14.4899 15.4521 14.7887C15.5318 15.061 15.2928 15.3532 15.0072 15.4395C14.7283 15.5258 14.3963 15.4063 14.29 15.1141C14.1971 14.8485 14.0377 14.8352 13.7986 14.802C13.46 14.7489 13.108 14.6493 12.8025 14.4899C12.4771 14.3172 12.4041 13.9719 12.5436 13.6598C12.6963 13.3145 12.9951 13.2149 13.367 13.4274C13.7521 13.6532 14.1373 13.6731 14.5424 13.5071C14.8146 13.3942 15.0271 13.2282 15.0205 12.8962C15.0072 12.5508 14.9143 12.2255 14.5623 12.0794C14.3498 11.993 14.1174 11.9731 13.885 11.9399C13.5463 11.8934 13.201 11.8735 12.8689 11.8137C12.1451 11.6809 11.7533 11.1895 11.574 10.5055C11.3947 9.82154 11.5674 9.24381 12.1053 8.77233C12.185 8.70592 12.2514 8.55983 12.2381 8.46022C12.165 7.98209 12.2912 7.66998 12.6498 7.57037C12.9951 7.47076 13.2674 7.63678 13.4533 8.06842C13.4533 8.1149 13.4799 8.14147 13.4865 8.14811Z" fill="#F99B2A"/>
<path d="M10.7838 25.3273C10.4584 25.3207 10.2924 25.1679 10.2459 24.909C10.1995 24.6301 10.3323 24.4375 10.6045 24.3512C11.2155 24.1586 11.8264 23.9726 12.444 23.7867C16.5014 22.5582 20.5588 21.323 24.6163 20.0945C24.6827 20.0746 24.7424 20.0547 24.8088 20.0414C25.1674 19.9418 25.4198 20.048 25.5127 20.3269C25.6123 20.6258 25.4663 20.8781 25.101 20.9976C23.5405 21.4758 21.9733 21.9539 20.4127 22.4254C17.3381 23.3617 14.2635 24.2914 11.1889 25.2211C11.0295 25.2676 10.8768 25.3008 10.7838 25.3273Z" fill="#F99B2A"/>
<path d="M9.93377 22.5848C9.6615 22.5649 9.46892 22.4454 9.4158 22.1797C9.36267 21.8875 9.49549 21.6817 9.77439 21.5954C10.4916 21.3696 11.2088 21.1504 11.926 20.9379C15.8638 19.7426 19.8084 18.5473 23.7463 17.352C23.8525 17.3188 23.9588 17.2856 24.065 17.2657C24.3705 17.2125 24.6295 17.352 24.6826 17.6243C24.7424 17.9165 24.6162 18.1223 24.3373 18.2153C23.8857 18.3614 23.4342 18.5008 22.9759 18.6403C18.7392 19.9286 14.5025 21.2102 10.2658 22.4918C10.1529 22.525 10.04 22.5516 9.93377 22.5848Z" fill="#F99B2A"/>
<path d="M9.1303 19.8156C8.81819 19.8156 8.63225 19.6894 8.57913 19.4304C8.51936 19.1382 8.65217 18.9324 8.93772 18.846C9.47561 18.68 10.0135 18.514 10.5514 18.348C14.6951 17.0929 18.8389 15.8378 22.976 14.5828C23.4608 14.4367 23.7397 14.5164 23.8393 14.8285C23.9455 15.1738 23.7662 15.3929 23.2616 15.5457C18.6994 16.9269 14.1307 18.3148 9.56858 19.6961C9.40921 19.7425 9.24983 19.7824 9.1303 19.8156Z" fill="#F99B2A"/>
<path d="M11.5807 28.0898C11.3085 28.0566 11.1358 27.9371 11.0893 27.6848C11.0362 27.3926 11.1557 27.1867 11.4413 27.0937C12.0655 26.9012 12.6897 26.7152 13.3139 26.5293C17.3581 25.3008 21.4088 24.0723 25.453 22.8437C25.546 22.8172 25.6456 22.784 25.7385 22.7641C26.0307 22.7109 26.2698 22.8371 26.3495 23.0895C26.4292 23.3551 26.303 23.6141 26.0108 23.7137C25.6456 23.8398 25.2737 23.9461 24.9018 24.059C20.5788 25.3738 16.2624 26.682 11.9393 27.9902C11.8131 28.0301 11.6803 28.0633 11.5807 28.0898Z" fill="#F99B2A"/>
</g>
<defs>
<clipPath id="clip0_1_484">
<rect width="30.1551" height="34" fill="white" transform="translate(0.922485)"/>
</clipPath>
</defs>
</svg>
