<svg width="37" height="36" viewBox="0 0 37 36" fill="none" xmlns="http://www.w3.org/2000/svg">
<g clip-path="url(#clip0_1_525)">
<path d="M35.821 10.8256C35.538 10.8256 35.3086 11.0549 35.3086 11.3379V31.9809C35.3086 32.253 35.0872 32.4744 34.8151 32.4744H20.8376C20.5546 32.4744 20.3252 32.7037 20.3252 32.9868C20.3252 33.2697 20.5546 33.4991 20.8376 33.4991H34.8152C35.6523 33.4991 36.3334 32.8181 36.3334 31.9809V11.3379C36.3334 11.055 36.104 10.8256 35.821 10.8256Z" fill="#EE2E24"/>
<path d="M34.8151 0.446533H1.85156C1.01442 0.446533 0.333374 1.12758 0.333374 1.96472V31.9806C0.333374 32.8178 1.01442 33.4988 1.85156 33.4988H3.19073C3.47374 33.4988 3.70309 33.2695 3.70309 32.9865C3.70309 32.7035 3.47374 32.4741 3.19073 32.4741H1.85156C1.57945 32.4741 1.35804 32.2527 1.35804 31.9806V1.96472C1.35804 1.69261 1.57945 1.4712 1.85156 1.4712H34.8151C35.0872 1.4712 35.3086 1.69261 35.3086 1.96472V8.12668C35.3086 8.40962 35.538 8.63905 35.821 8.63905C36.104 8.63905 36.3334 8.40969 36.3334 8.12668V1.96472C36.3333 1.12758 35.6523 0.446533 34.8151 0.446533Z" fill="#EE2E24"/>
<path d="M20.529 22.0299C20.529 21.2511 19.8954 20.6174 19.1166 20.6174H18.9214H4.59903C3.82018 20.6174 3.18652 21.2511 3.18652 22.0299C3.18652 22.8088 3.82018 23.4424 4.59903 23.4424H5.49713L4.33824 34.2708C4.30351 34.5953 4.40398 34.9072 4.62132 35.149C4.85215 35.4059 5.19486 35.5532 5.56153 35.5532H18.4667C18.8334 35.5532 19.1761 35.4059 19.407 35.149C19.6242 34.9073 19.7248 34.5954 19.69 34.2708L18.5311 23.4424H19.1166C19.8953 23.4424 20.529 22.8088 20.529 22.0299ZM4.59903 22.4178C4.38514 22.4178 4.21119 22.2438 4.21119 22.0299C4.21119 21.8161 4.38514 21.6421 4.59903 21.6421H5.68978L5.60675 22.4178H4.59903V22.4178ZM5.56153 34.5285C5.48518 34.5285 5.42028 34.505 5.38343 34.464C5.36192 34.4401 5.35355 34.4133 5.35707 34.3797L6.72028 21.6421H12.488L13.1431 34.5285H5.56153V34.5285ZM14.169 34.5285L13.5139 21.6421H14.785L15.8062 34.5285H14.169ZM18.6712 34.3798C18.6747 34.4133 18.6664 34.4401 18.6448 34.464C18.608 34.505 18.5431 34.5285 18.4667 34.5285H16.8341L15.8129 21.6421H17.308L18.6712 34.3798ZM18.4215 22.4178L18.3384 21.6421H19.1165C19.3303 21.6421 19.5043 21.816 19.5043 22.0299C19.5043 22.2438 19.3303 22.4178 19.1165 22.4178H18.4215V22.4178Z" fill="#EE2E24"/>
<path d="M26.771 20.6174H24.138C23.5888 20.6174 23.1418 21.0643 23.1418 21.6136V24.2466C23.1418 24.7959 23.5888 25.2427 24.138 25.2427H26.771C27.3203 25.2427 27.7672 24.7959 27.7672 24.2466V21.6136C27.7672 21.0643 27.3203 20.6174 26.771 20.6174ZM26.7425 24.2181H24.1665V21.6422H26.7425V24.2181Z" fill="#F99B2A"/>
<path d="M32.484 20.6174H29.851C29.3018 20.6174 28.8549 21.0643 28.8549 21.6136V24.2466C28.8549 24.7959 29.3018 25.2427 29.851 25.2427H32.484C33.0333 25.2427 33.4802 24.7959 33.4802 24.2466V21.6136C33.4802 21.0643 33.0333 20.6174 32.484 20.6174ZM32.4556 24.2181H29.8795V21.6422H32.4556V24.2181Z" fill="#F99B2A"/>
<path d="M26.771 26.2098H24.138C23.5888 26.2098 23.1418 26.6567 23.1418 27.206V29.839C23.1418 30.3883 23.5888 30.8352 24.138 30.8352H26.771C27.3203 30.8352 27.7672 30.3883 27.7672 29.839V27.206C27.7672 26.6567 27.3203 26.2098 26.771 26.2098ZM26.7425 29.8105H24.1665V27.2344H26.7425V29.8105Z" fill="#F99B2A"/>
<path d="M32.484 26.2098H29.851C29.3018 26.2098 28.8549 26.6567 28.8549 27.206V29.839C28.8549 30.3883 29.3018 30.8352 29.851 30.8352H32.484C33.0333 30.8352 33.4802 30.3883 33.4802 29.839V27.206C33.4802 26.6567 33.0333 26.2098 32.484 26.2098ZM32.4556 29.8105H29.8795V27.2344H32.4556V29.8105Z" fill="#EE2E24"/>
<path d="M33.4802 4.81903C33.4802 4.00565 32.8184 3.34387 32.005 3.34387H4.66168C3.8483 3.34387 3.18652 4.00565 3.18652 4.81903V16.3652C3.18652 17.1785 3.8483 17.8403 4.66168 17.8403H32.005C32.8184 17.8403 33.4802 17.1786 33.4802 16.3652V4.81903ZM32.4555 16.3652C32.4555 16.6136 32.2534 16.8157 32.005 16.8157H4.66168C4.41326 16.8157 4.21119 16.6136 4.21119 16.3652V4.81903C4.21119 4.57061 4.41326 4.36853 4.66168 4.36853H32.005C32.2534 4.36853 32.4555 4.57061 32.4555 4.81903V16.3652Z" fill="#EE2E24"/>
<path d="M13.474 13.1148L11.9179 8.03878C11.8264 7.74755 11.4519 7.60608 11.0691 7.60608C10.6863 7.60608 10.3119 7.74755 10.2204 8.03878L8.6726 13.1148C8.6643 13.148 8.65601 13.1814 8.65601 13.2063C8.65601 13.5141 9.13026 13.7389 9.48822 13.7389C9.69621 13.7389 9.86264 13.6723 9.91256 13.4976L10.1954 12.4574H11.9512L12.2341 13.4976C12.284 13.6723 12.4504 13.7389 12.6585 13.7389C13.0163 13.7389 13.4906 13.5142 13.4906 13.2063C13.4906 13.1814 13.4823 13.148 13.474 13.1148ZM10.4616 11.4588L11.0691 9.22875L11.6766 11.4588H10.4616V11.4588Z" fill="#F99B2A"/>
<path d="M19.565 7.65564H15.9702C15.6955 7.65564 15.5791 7.95517 15.5791 8.22981C15.5791 8.546 15.7206 8.82057 15.9702 8.82057H17.1186V13.3391C17.1186 13.6053 17.4432 13.7385 17.7676 13.7385C18.0921 13.7385 18.4166 13.6053 18.4166 13.3391V8.82057H19.565C19.8146 8.82057 19.9561 8.546 19.9561 8.22981C19.9561 7.95517 19.8396 7.65564 19.565 7.65564Z" fill="#F99B2A"/>
<path d="M27.3616 7.65564C26.8956 7.65564 26.696 7.70556 26.3547 8.30469L25.4977 9.80256L24.6406 8.30469C24.2995 7.70556 24.0998 7.65564 23.6338 7.65564C23.3092 7.65564 22.9847 7.83037 22.9847 8.30469V13.3391C22.9847 13.6053 23.3092 13.7385 23.6338 13.7385C23.9583 13.7385 24.2828 13.6053 24.2828 13.3391V10.1354L25.0733 11.5833C25.1731 11.7747 25.3313 11.8246 25.481 11.8246C25.6392 11.8246 25.8056 11.7664 25.9137 11.5833L26.7126 10.2186V13.3391C26.7126 13.6053 27.0371 13.7385 27.3616 13.7385C27.6861 13.7385 28.0106 13.6053 28.0106 13.3391V8.30469C28.0106 7.83037 27.6944 7.65564 27.3616 7.65564Z" fill="#F99B2A"/>
</g>
<defs>
<clipPath id="clip0_1_525">
<rect width="36" height="36" fill="white" transform="translate(0.333374)"/>
</clipPath>
</defs>
</svg>
