<svg width="39" height="24" viewBox="0 0 39 24" fill="none" xmlns="http://www.w3.org/2000/svg">
<path d="M0.0769043 15.4648C0.302565 14.3365 0.490616 13.2007 0.761409 12.0874C1.28795 9.93613 1.81449 7.78483 2.4313 5.65609C3.34899 2.49684 6.18479 0.315451 9.4644 0.187577C15.1811 -0.0380843 20.8904 -0.0531283 26.6071 0.104834C27.8558 0.142444 29.1345 0.104834 30.3531 0.345539C33.3393 0.939779 35.3402 2.78268 36.2428 5.68618C37.1906 8.71004 37.9127 11.7941 38.4844 14.9157C38.5145 15.0962 38.5521 15.2843 38.5897 15.4648C38.5897 15.9387 38.5897 16.4201 38.5897 16.894C38.4919 17.3528 38.4242 17.8267 38.2888 18.2781C37.0552 22.6408 32.6924 24.6643 28.9013 23.8067C28.5102 23.7165 28.2996 23.4382 28.3673 23.1222C28.4425 22.7687 28.7509 22.6258 29.2022 22.7161C31.4362 23.1599 33.4597 22.6935 35.1596 21.1891C37.1304 19.4515 37.8375 17.225 37.2658 14.6675C36.634 11.8242 35.9495 8.98835 35.1897 6.17511C34.415 3.30922 32.0681 1.49641 29.1044 1.31588C28.6982 1.29331 28.2845 1.27827 27.8482 1.2557C27.8181 1.58667 27.7956 1.88003 27.758 2.17339C27.5624 3.73045 26.3438 4.89637 24.7717 4.91893C21.5899 4.95654 18.393 4.94902 15.1962 4.95654C15.121 4.95654 15.0457 4.95654 14.9705 4.94902C14.632 4.91141 14.4289 4.70079 14.4365 4.39239C14.4365 4.08399 14.6471 3.85833 14.9856 3.83576C15.2564 3.82072 15.5347 3.85833 15.813 3.8508C18.7842 3.83576 21.7554 3.82824 24.7266 3.79063C25.7496 3.77558 26.5168 3.06099 26.6598 2.038C26.6974 1.78977 26.6974 1.54154 26.7275 1.22562C21.808 1.09022 16.9187 1.09774 12.0294 1.21809C11.8188 2.06808 12.1949 2.98577 12.9245 3.48975C13.0674 3.58753 13.2555 3.71541 13.2781 3.8508C13.3082 4.04638 13.2555 4.30213 13.1427 4.46009C12.9922 4.67071 12.729 4.67823 12.4958 4.54283C11.6082 4.04638 11.0666 3.3017 10.9086 2.29374C10.856 1.96278 10.8409 1.62428 10.8108 1.29331C7.4184 1.02252 4.47729 2.76011 3.47686 6.0698C2.58926 9.01844 1.8521 12.0122 1.30299 15.0436C0.648578 18.6617 3.13085 22.1293 6.79408 22.7537C10.1113 23.3253 13.3082 21.4599 14.3236 18.3608C14.3387 18.3006 14.3537 18.248 14.3688 18.1953C12.413 17.1874 11.6984 15.9387 12.1197 14.2914C12.4807 12.8923 13.8347 11.8843 15.2789 11.937C16.9639 12.0047 17.9793 13.0653 18.3705 15.1865C19.0098 15.1865 19.6492 15.1865 20.2886 15.1865C20.755 12.9825 21.7855 11.937 23.4855 11.9295C24.9673 11.9295 26.2385 12.9525 26.5695 14.4193C26.9305 16.0214 26.1558 17.3077 24.2903 18.1803C24.5385 19.0603 24.9598 19.8502 25.5766 20.5196C26.0129 20.9935 26.5319 21.3997 27.0434 21.7984C27.4044 22.0842 27.5248 22.3851 27.3142 22.6784C27.1186 22.9568 26.7952 22.9868 26.4191 22.7386C24.862 21.7231 23.7788 20.3391 23.2297 18.5564C23.1545 18.3081 23.0341 18.2104 22.7784 18.1502C21.8757 17.9471 21.1837 17.4356 20.7474 16.6157C20.6271 16.3975 20.4992 16.3223 20.251 16.3298C19.6116 16.3449 18.9722 16.3223 18.3329 16.3449C18.205 16.3524 18.032 16.4502 17.9643 16.563C17.4678 17.413 16.7683 17.9546 15.8055 18.1803C15.6701 18.2104 15.5121 18.3608 15.467 18.4962C14.4064 21.5652 12.2776 23.4306 9.08829 23.9045C4.88348 24.5364 0.814063 21.7307 0.152125 17.2475C0.137081 17.1497 0.106992 17.0595 0.0769043 16.9617C0.0769043 16.4652 0.0769043 15.9613 0.0769043 15.4648ZM25.5164 15.1113C25.5239 13.9905 24.6213 13.0653 23.508 13.0653C22.4023 13.0578 21.4696 13.983 21.4696 15.0962C21.4696 16.1945 22.3797 17.1121 23.4704 17.1197C24.5987 17.1272 25.5089 16.2396 25.5164 15.1113ZM15.1811 17.1197C16.2794 17.1197 17.1895 16.217 17.2046 15.1188C17.2196 14.0131 16.2944 13.0728 15.1887 13.0653C14.0679 13.0578 13.1577 13.9679 13.1577 15.0962C13.1502 16.2245 14.0453 17.1197 15.1811 17.1197Z" fill="#EE2E24"/>
<path d="M6.02686 7.32602C6.33526 5.784 7.07994 5.06189 8.33612 5.06189C9.58478 5.06941 10.3595 5.82161 10.6379 7.3185C12.2175 7.70212 12.9246 8.43176 12.9095 9.65785C12.8945 10.8839 12.1498 11.6361 10.6379 11.9521C10.3595 13.4414 9.58478 14.2087 8.34364 14.2162C7.11003 14.2237 6.32022 13.464 6.02686 11.937C5.2897 11.8768 4.63528 11.6136 4.17644 10.9742C3.85299 10.5304 3.73264 10.034 3.75521 9.48484C3.80786 8.34149 4.51493 7.65699 6.02686 7.32602ZM4.88351 9.62024C4.87599 10.2446 5.2897 10.7034 5.92907 10.7786C6.13969 10.8012 6.35783 10.7862 6.56845 10.8012C6.94455 10.8238 7.14012 11.0118 7.16269 11.3804C7.17773 11.6061 7.17021 11.8317 7.2003 12.0574C7.27552 12.6892 7.71932 13.0879 8.3286 13.0879C8.94541 13.0879 9.41177 12.6516 9.47195 12.0198C9.48699 11.8618 9.47947 11.6963 9.48699 11.5308C9.50204 10.9892 9.67504 10.8087 10.2091 10.7937C10.4423 10.7862 10.6905 10.7862 10.9162 10.7335C11.4502 10.6207 11.7963 10.1543 11.7887 9.61272C11.7812 9.06361 11.4202 8.61981 10.8786 8.52202C10.6379 8.47689 10.3821 8.47689 10.1339 8.46937C9.69761 8.4468 9.50204 8.25875 9.48699 7.81495C9.47947 7.60434 9.49451 7.3862 9.46443 7.17558C9.38921 6.57382 8.93036 6.18267 8.33612 6.18267C7.73436 6.18267 7.29056 6.5663 7.20782 7.16806C7.17773 7.40124 7.17773 7.64195 7.16269 7.88265C7.1326 8.25875 6.94455 8.43928 6.56845 8.46937C6.30517 8.48441 6.0419 8.47689 5.78615 8.52202C5.23705 8.62733 4.89103 9.07113 4.88351 9.62024Z" fill="#F99B2A"/>
<path d="M19.4311 10.1995C18.8819 10.1995 18.3253 10.207 17.7762 10.1995C16.8886 10.192 16.1966 9.54508 16.1515 8.70261C16.1063 7.80749 16.7006 7.05529 17.6032 7.01016C18.8143 6.9575 20.0328 6.9575 21.2439 7.01768C22.1014 7.05529 22.7257 7.82253 22.6956 8.64244C22.658 9.51499 21.9735 10.1845 21.0859 10.1995C20.5368 10.207 19.9877 10.1995 19.4311 10.1995ZM19.416 9.07119C19.9426 9.07119 20.4691 9.06367 20.9881 9.07119C21.3116 9.07871 21.5222 8.93579 21.5598 8.61235C21.5899 8.33403 21.3642 8.12341 21.0182 8.12341C19.9576 8.11589 18.897 8.11589 17.8289 8.12341C17.4678 8.12341 17.2798 8.31147 17.2798 8.60483C17.2798 8.89818 17.4753 9.07119 17.8364 9.07119C18.3705 9.07871 18.8895 9.07119 19.416 9.07119Z" fill="#F99B2A"/>
<path d="M31.7973 5.76139C32.9858 5.75387 33.9787 6.74678 33.9712 7.94278C33.9712 9.13879 32.9858 10.1242 31.7898 10.1167C30.6088 10.1167 29.631 9.14631 29.6235 7.97287C29.6159 6.73926 30.5788 5.76139 31.7973 5.76139ZM31.7823 6.8897C31.2031 6.89722 30.7518 7.37111 30.7593 7.95783C30.7668 8.52198 31.2332 8.98082 31.7898 8.98082C32.3615 8.98082 32.8429 8.49941 32.8354 7.92774C32.8354 7.35607 32.3615 6.88218 31.7823 6.8897Z" fill="#F99B2A"/>
<path d="M30.5637 11.3427C30.5637 12.5538 29.6009 13.5166 28.3899 13.5091C27.1863 13.5091 26.2085 12.5312 26.216 11.3352C26.2235 10.1317 27.1938 9.16133 28.3974 9.15381C29.5859 9.15381 30.5637 10.1392 30.5637 11.3427ZM29.4279 11.3202C29.4204 10.756 28.9615 10.2972 28.4049 10.2896C27.8332 10.2821 27.3593 10.756 27.3593 11.3427C27.3593 11.9294 27.8182 12.3883 28.4049 12.3808C28.9916 12.3732 29.4354 11.9144 29.4279 11.3202Z" fill="#F99B2A"/>
</svg>
