<svg width="26" height="25" viewBox="0 0 26 25" fill="none" xmlns="http://www.w3.org/2000/svg">
<path d="M22.1085 11.6072C22.2703 11.6072 22.4266 11.6658 22.5486 11.7721C22.6705 11.8785 22.7499 12.0254 22.7719 12.1857L22.7781 12.2768V19.8661C22.7782 20.7232 22.4495 21.5478 21.8599 22.1698C21.2702 22.7919 20.4644 23.1641 19.6085 23.2098L19.4299 23.2143H6.48347C5.62618 23.2144 4.80153 22.8856 4.17944 22.2957C3.55734 21.7059 3.18521 20.8998 3.13972 20.0438L3.13525 19.8652V12.2759C3.13553 12.1063 3.20014 11.9432 3.31604 11.8193C3.43194 11.6955 3.5905 11.6203 3.7597 11.6089C3.9289 11.5974 4.09614 11.6506 4.22766 11.7577C4.35918 11.8647 4.44518 12.0177 4.46829 12.1857L4.47454 12.2768V19.8661C4.47448 20.3751 4.66766 20.8652 5.01505 21.2373C5.36244 21.6094 5.83812 21.8357 6.34597 21.8706L6.48347 21.875H19.4299C19.9389 21.8751 20.429 21.6819 20.8011 21.3345C21.1732 20.9871 21.3995 20.5114 21.4344 20.0036L21.4388 19.8661V12.2768C21.4388 12.0992 21.5094 11.9289 21.635 11.8033C21.7605 11.6777 21.9309 11.6072 22.1085 11.6072ZM12.8353 2.01966L12.8951 2.01162L12.9719 2.00894L13.0254 2.01251L13.1094 2.0268L13.1701 2.04376L13.2236 2.06341L13.2861 2.09555L13.3317 2.12412L13.3656 2.14823L13.4299 2.20448L19.112 7.88662C19.2322 8.00596 19.3026 8.16637 19.3092 8.33556C19.3158 8.50476 19.2581 8.67018 19.1476 8.79851C19.0372 8.92685 18.8822 9.00858 18.7139 9.02724C18.5456 9.04591 18.3765 9.00013 18.2406 8.89912L18.1656 8.83394L13.6263 4.29466V16.2947C13.6263 16.4565 13.5677 16.6128 13.4614 16.7348C13.355 16.8567 13.2081 16.936 13.0478 16.958L12.9567 16.9643C12.7949 16.9643 12.6385 16.9057 12.5166 16.7993C12.3946 16.693 12.3153 16.546 12.2933 16.3857L12.287 16.2947V4.29466L7.74775 8.83394C7.63437 8.94735 7.48406 9.0163 7.32414 9.02826C7.16422 9.04023 7.00532 8.9944 6.87633 8.89912L6.80133 8.83394C6.68792 8.72056 6.61896 8.57024 6.607 8.41032C6.59504 8.25041 6.64087 8.0915 6.73615 7.96251L6.80133 7.88662L12.4835 2.20537L12.5817 2.12501L12.6665 2.07591L12.7433 2.04466L12.8353 2.02055V2.01966Z" fill="#EE2E24"/>
</svg>
