<svg width="24" height="24" viewBox="0 0 24 24" fill="none" xmlns="http://www.w3.org/2000/svg">
<path d="M17.1954 3.64255C17.3583 3.47969 17.3749 3.23272 17.2325 3.09037L15.1723 1.03013C14.6041 0.461987 13.6136 0.528535 12.9636 1.17852L1.17852 12.9636C0.528535 13.6136 0.461987 14.6041 1.03013 15.1723L3.09037 17.2325C3.23272 17.3749 3.47969 17.3583 3.64255 17.1954C4.45478 16.3832 5.69336 16.3 6.40333 17.0099C7.11329 17.7199 7.03008 18.9585 6.21784 19.7707C6.05499 19.9336 6.0384 20.1805 6.18075 20.3229L8.24099 22.3831C8.80913 22.9513 9.79965 22.8847 10.4496 22.2347L22.2348 10.4496C22.8847 9.79965 22.9513 8.80913 22.3831 8.24099L20.3229 6.18075C20.1805 6.0384 19.9336 6.05499 19.7707 6.21784C18.9585 7.03008 17.7199 7.11329 17.0099 6.40333C16.3 5.69336 16.3832 4.45478 17.1954 3.64255ZM16.4207 6.99257C17.3273 7.89921 18.8495 7.88202 19.9728 7.00916L21.7939 8.83023C22.0778 9.11416 22.0445 9.60971 21.7197 9.93453L9.93456 21.7197C9.60973 22.0445 9.11419 22.0778 8.83026 21.7938L7.00919 19.9728C7.88203 18.8494 7.89924 17.3273 6.9926 16.4207C6.08596 15.514 4.56381 15.5312 3.44048 16.4041L1.61941 14.583C1.33548 14.2991 1.36877 13.8035 1.6936 13.4787L13.4787 1.69357C13.8035 1.36874 14.2991 1.33545 14.583 1.61938L16.4041 3.44045C15.5312 4.56381 15.514 6.08594 16.4207 6.99257Z" fill="#EE2E24"/>
<path d="M4.79567 11.2777C4.63282 11.4405 4.61623 11.6875 4.75858 11.8298L5.33802 12.4093C5.48037 12.5516 5.72734 12.535 5.8902 12.3722C6.05305 12.2093 6.06965 11.9624 5.9273 11.82L5.34785 11.2406C5.20547 11.0982 4.95853 11.1148 4.79567 11.2777Z" fill="#EE2E24"/>
<path d="M6.92061 13.4023C6.75776 13.5651 6.74117 13.8121 6.88354 13.9545L7.39863 14.4696C7.54099 14.6119 7.78797 14.5954 7.95083 14.4325C8.11368 14.2697 8.13027 14.0227 7.98791 13.8803L7.47281 13.3652C7.33042 13.2229 7.08347 13.2394 6.92061 13.4023Z" fill="#EE2E24"/>
<path d="M8.98086 15.4627C8.818 15.6256 8.8014 15.8726 8.94374 16.0149L9.45877 16.5299C9.60111 16.6723 9.84808 16.6557 10.0109 16.4928C10.1738 16.33 10.1904 16.083 10.048 15.9407L9.53302 15.4256C9.39065 15.2833 9.14371 15.2999 8.98086 15.4627Z" fill="#EE2E24"/>
<path d="M11.0412 17.5229C10.8784 17.6857 10.8618 17.9327 11.0041 18.0751L11.5192 18.5901C11.6615 18.7325 11.9085 18.7159 12.0713 18.553C12.2342 18.3902 12.2508 18.1432 12.1084 18.0008L11.5934 17.4858C11.451 17.3435 11.2041 17.36 11.0412 17.5229Z" fill="#EE2E24"/>
</svg>
