<svg width="24" height="24" viewBox="0 0 24 24" fill="none" xmlns="http://www.w3.org/2000/svg">
<g clip-path="url(#clip0_1_708)">
<path d="M21.2581 15.2636C21.354 14.4141 21.4585 12.9123 21.2487 11.397C21.2221 11.2042 21.0439 11.0694 20.8515 11.0964C20.6588 11.1231 20.5242 11.3009 20.5509 11.4936C20.7464 12.9054 20.6473 14.3412 20.5687 15.0856C20.348 15.0488 20.1216 15.0293 19.8906 15.0293C19.3374 15.0293 18.8095 15.1395 18.3273 15.3385C18.6746 14.2906 18.8837 13.1093 18.9122 11.9898C18.9514 10.4501 18.6572 9.03019 18.058 7.8436H18.3528L18.6035 7.89375C19.3013 8.2628 19.8307 8.93902 20.1779 9.90825C20.2435 10.0915 20.4452 10.1867 20.6283 10.1211C20.8114 10.0555 20.9068 9.85383 20.8412 9.67064C20.6307 9.08325 20.3582 8.58572 20.0271 8.17847L20.1973 8.2125C20.412 8.25544 20.6186 8.08575 20.6186 7.86713V5.61277C20.6186 5.39401 20.412 5.22442 20.1973 5.2674L18.74 5.55887V3.73408C18.74 3.59008 18.6523 3.46056 18.5185 3.40703L16.8403 2.73573C16.7224 2.03711 16.1135 1.5032 15.3819 1.5032C14.5661 1.5032 13.9024 2.16686 13.9024 2.98262C13.9024 3.79839 14.5661 4.46204 15.3819 4.46204C16.027 4.46204 16.5766 4.04687 16.7785 3.46979L18.0354 3.97257V5.63616H14.6304C14.4358 5.63616 14.2781 5.79381 14.2781 5.98838C14.2781 6.18296 14.4358 6.34065 14.6304 6.34065H16.9083V7.49129C16.9083 7.68455 17.0638 7.84121 17.2566 7.84332C18.8693 10.6101 18.1111 14.1438 17.3929 15.8226C17.3829 15.8462 17.3757 15.8703 17.371 15.8945C17.2646 15.9773 17.1624 16.0651 17.0647 16.1578C17.0556 16.1571 17.0466 16.1564 17.0373 16.1564H13.8524C14.1512 15.2341 14.3613 14.1511 14.2016 13.1524C14.019 12.0101 13.3964 11.1583 12.3526 10.618V8.61849C12.3526 8.42391 12.1949 8.26627 12.0004 8.26627H7.86739C6.6373 8.26627 5.63652 9.26705 5.63652 10.4971V10.5218C5.62874 10.5213 5.62096 10.5206 5.61304 10.5206H5.58956V8.2193H5.98874C6.18332 8.2193 6.34096 8.06166 6.34096 7.86703V5.98843C6.34096 5.79385 6.18332 5.63621 5.98874 5.63621H0.352877C0.158299 5.63621 0.000612065 5.79385 0.000612065 5.98843V7.86703C0.000612065 8.06161 0.158252 8.2193 0.352877 8.2193H0.752064V10.5206H0.352877C0.158299 10.5206 0.000612065 10.6783 0.000612065 10.8729C0.000612065 11.0675 0.158252 11.2251 0.352877 11.2251H4.31395C4.04362 11.3614 3.78562 11.5097 3.54131 11.6699C-0.0741064 14.0398 -0.0157473 17.5934 0.00347144 18.7611C0.00483081 18.8442 0.00712768 18.9275 0.00525268 19.0107C0.00379956 19.0745 -0.0039348 19.1354 0.0136433 19.1982C0.0557838 19.3485 0.19669 19.4555 0.35283 19.4555H1.14314C1.30331 21.1591 2.74101 22.4968 4.48584 22.4968C6.23066 22.4968 7.66836 21.1591 7.82854 19.4555H12.0004C12.0933 19.4555 12.1825 19.4188 12.2484 19.3533C12.3493 19.2532 12.5989 18.882 12.8846 18.3639H15.8546C15.8066 18.6149 15.7811 18.8739 15.7811 19.1388C15.7811 19.3334 15.9387 19.4911 16.1333 19.4911H16.5511C16.7277 21.1777 18.1579 22.4969 19.8905 22.4969C21.6231 22.4969 23.0533 21.1778 23.2299 19.4911H23.6477C23.8423 19.4911 24 19.3334 24 19.1388C24 17.3521 22.8537 15.8283 21.2581 15.2636ZM18.7398 6.27718L19.9139 6.04234V7.43738L18.8348 7.22152C18.8033 7.20615 18.7719 7.19049 18.7398 7.17601V6.27718ZM15.3818 3.75756C14.9545 3.75756 14.6068 3.40993 14.6068 2.98262C14.6068 2.55531 14.9545 2.20769 15.3818 2.20769C15.8091 2.20769 16.1567 2.55531 16.1567 2.98262C16.1567 3.40993 15.8091 3.75756 15.3818 3.75756ZM18.0353 7.13907H17.6126V6.34065H17.6361H18.0353V7.13907ZM6.34091 10.4971C6.34091 9.65545 7.02562 8.97075 7.8673 8.97075H11.648V10.5206H6.34091V10.4971ZM0.705048 7.51482V6.34069H5.63643V7.51482H0.705048ZM1.4565 10.5206V8.2193H4.88498V10.5206H1.4565ZM4.48579 21.7924C3.12979 21.7924 2.00887 20.7698 1.8518 19.4555H2.65828C2.80903 20.328 3.57089 20.9939 4.48579 20.9939C5.4007 20.9939 6.16255 20.328 6.3133 19.4555H7.11974C6.96271 20.7698 5.84174 21.7924 4.48579 21.7924ZM3.37978 19.4554H5.59176C5.45385 19.9363 5.01042 20.2894 4.48574 20.2894C3.96107 20.2894 3.51768 19.9363 3.37978 19.4554ZM12.8708 16.7775C12.4707 17.7345 12.0157 18.4763 11.8267 18.7509H0.707908C0.707861 18.7505 0.707861 18.7499 0.707861 18.7495C0.688361 17.5644 0.636658 14.4162 3.92746 12.259C4.52793 11.8654 5.22145 11.5481 5.98874 11.316C6.04766 11.2982 6.09843 11.2662 6.13855 11.2251H11.9943C12.8324 11.6476 13.3217 12.2834 13.4895 13.1689C13.7189 14.3798 13.2797 15.7997 12.8708 16.7775ZM16.0567 17.6593H13.2469C13.326 17.4943 13.4043 17.3225 13.4798 17.1462C13.5189 17.0548 13.5583 16.9594 13.5976 16.8609H16.4718C16.3057 17.1094 16.166 17.3769 16.0567 17.6593ZM19.8905 21.7924C18.4569 21.7924 17.286 20.6495 17.2392 19.2271C17.5893 18.6134 17.9952 18.1861 18.4884 17.9261C18.2065 18.2516 18.0353 18.6755 18.0353 19.1388C18.0353 20.1617 18.8675 20.9939 19.8904 20.9939C20.9133 20.9939 21.7456 20.1617 21.7456 19.1388C21.7456 18.7242 21.6087 18.3408 21.378 18.0316C21.8913 18.3483 22.2718 18.7987 22.5419 19.2202C22.4987 20.6457 21.3264 21.7924 19.8905 21.7924ZM18.7398 19.1388C18.7398 18.5043 19.2559 17.9881 19.8904 17.9881C20.5249 17.9881 21.0411 18.5043 21.0411 19.1388C21.0411 19.7733 20.5249 20.2894 19.8904 20.2894C19.2559 20.2894 18.7398 19.7733 18.7398 19.1388ZM23.1006 18.7865C22.3026 17.5732 21.1692 16.9079 19.8905 16.9079C18.0644 16.9079 17.1835 17.9308 16.6796 18.7865H16.5036C16.6804 17.0739 18.1319 15.7338 19.8905 15.7338C21.649 15.7338 23.1006 17.0739 23.2774 18.7865H23.1006Z" fill="#EE2E24"/>
<path d="M11.6245 12.7749H8.24296C8.04839 12.7749 7.89075 12.9326 7.89075 13.1272C7.89075 13.3218 8.04839 13.4794 8.24296 13.4794H11.6245C11.8191 13.4794 11.9767 13.3218 11.9767 13.1272C11.9767 12.9326 11.8191 12.7749 11.6245 12.7749Z" fill="#F99B2A"/>
<path d="M10.873 15.0293H5.98862C5.79404 15.0293 5.63635 15.1869 5.63635 15.3815C5.63635 15.5761 5.79404 15.7338 5.98862 15.7338H10.873C11.0676 15.7338 11.2253 15.5761 11.2253 15.3815C11.2253 15.1869 11.0677 15.0293 10.873 15.0293Z" fill="#F99B2A"/>
<path d="M9.74586 17.2836H3.7343C3.53972 17.2836 3.38208 17.4412 3.38208 17.6359C3.38208 17.8304 3.53972 17.9881 3.7343 17.9881H9.74586C9.94044 17.9881 10.0981 17.8304 10.0981 17.6359C10.0981 17.4412 9.94044 17.2836 9.74586 17.2836Z" fill="#F99B2A"/>
</g>
<defs>
<clipPath id="clip0_1_708">
<rect width="24" height="24" fill="white"/>
</clipPath>
</defs>
</svg>
