<svg width="24" height="24" viewBox="0 0 24 24" fill="none" xmlns="http://www.w3.org/2000/svg">
<g clip-path="url(#clip0_292_246)">
<path d="M4.8978 8.88637L4.5752 7.91855L5.42571 7.62527L5.75809 8.5931L4.8978 8.88637ZM6.59882 8.30959L6.26644 7.34177L7.11695 7.04849L7.44933 8.01631L6.59882 8.30959ZM8.29984 7.73281L7.96746 6.76499L8.81797 6.47171L9.15035 7.43953L8.29984 7.73281Z" fill="#9A9A9C"/>
<path d="M4.08636 10.2159C4.07659 10.2159 4.07659 10.2159 4.06681 10.2159C3.79308 10.2061 3.58779 9.98128 3.59756 9.70756L3.81264 3.88108C3.57801 3.66601 3.2554 3.26519 2.99145 2.54177C2.71773 1.78902 3.14787 1.29045 3.4998 1.14381C3.57801 1.11448 5.44522 0.322627 6.42282 0.0489004C6.73565 -0.0390833 7.0387 0.00979651 7.30266 0.185764C8.0163 0.664786 8.19227 1.99432 8.2216 2.25827C8.2216 2.26805 8.2216 2.27782 8.2216 2.29737L8.23137 2.68841L10.8611 6.30552C11.0175 6.52059 10.9686 6.83342 10.7536 6.98984C10.5385 7.14625 10.2257 7.09737 10.0693 6.8823L7.37109 3.12833C7.31243 3.05012 7.2831 2.95236 7.27333 2.8546L7.25378 2.33648C7.19512 1.86723 6.9996 1.14381 6.76498 0.987393C6.74543 0.977617 6.73565 0.967841 6.69655 0.977617C5.82648 1.22202 4.09614 1.94544 3.90062 2.02365C3.88107 2.03342 3.86151 2.06275 3.91039 2.18984C4.17435 2.91326 4.48718 3.15766 4.53606 3.19676C4.7218 3.27497 4.80001 3.45094 4.80001 3.64646L4.57516 9.72711C4.56538 10.0008 4.35031 10.2159 4.08636 10.2159ZM3.90062 2.03342C3.89084 2.03342 3.89084 2.0432 3.89084 2.0432C3.89084 2.0432 3.89084 2.03342 3.90062 2.03342Z" fill="#EE2E24"/>
<path d="M4.35033 4.21347C4.15482 4.21347 3.96907 4.09616 3.90064 3.91041C3.80288 3.65624 3.92019 3.37273 4.17437 3.27497L7.15604 2.07253C7.41021 1.97477 7.69372 2.09208 7.79148 2.34626C7.88924 2.60043 7.77192 2.88394 7.51775 2.9817L4.53608 4.17436C4.47742 4.19392 4.41877 4.21347 4.35033 4.21347Z" fill="#EE2E24"/>
<path d="M9.35555 10.4114C9.31644 10.4114 9.27734 10.4114 9.23823 10.3919C8.97428 10.3234 8.81787 10.0595 8.8863 9.79553L9.46308 7.49818C9.47286 7.4493 9.50219 7.40042 9.53151 7.35154L12.5523 2.70795C12.6892 2.45378 13.09 2.1214 13.7841 2.24848H13.7938C14.3608 2.36579 19.6985 4.9271 21.3213 5.70918C21.3213 5.70918 21.3311 5.70918 21.3311 5.71895C21.5657 5.83626 21.9274 6.21753 21.8004 6.87252C21.7221 7.27333 20.9205 9.77598 20.8228 10.0595C20.7446 10.3137 20.461 10.4603 20.2069 10.3723C19.9527 10.2941 19.8061 10.0106 19.894 9.75643C20.2264 8.70062 20.7837 6.94095 20.8423 6.677C20.8521 6.61834 20.8521 6.57924 20.8423 6.56946C18.2615 5.32791 14.0578 3.34339 13.5885 3.20653C13.4712 3.18698 13.4028 3.19675 13.3832 3.20653C13.3832 3.20653 13.3832 3.2163 13.3735 3.2163L10.3918 7.81101L9.83457 10.0302C9.77591 10.255 9.58039 10.4114 9.35555 10.4114Z" fill="#EE2E24"/>
<path d="M19.3857 9.46315L18.5645 9.10143L18.9849 8.17272L19.8061 8.53443L19.3857 9.46315ZM17.7531 8.72995L16.932 8.36824L17.3523 7.42975L18.1735 7.79146L17.7531 8.72995ZM16.1108 7.99675L15.2896 7.63504L15.71 6.70632L16.5311 7.06803L16.1108 7.99675ZM14.4782 7.26355L13.657 6.90184L14.0774 5.97313L14.8986 6.33484L14.4782 7.26355ZM12.8358 6.53036L12.0146 6.16865L12.435 5.23993L13.2562 5.60164L12.8358 6.53036Z" fill="#9A9A9C"/>
<path d="M14.7617 24C13.9698 24 13.002 24 11.8094 23.9903C8.83746 23.9707 5.88512 23.9218 5.85579 23.9218C5.79714 23.9218 5.74826 23.9121 5.69938 23.8925C5.62117 23.8632 4.88797 23.5894 4.6338 22.954C4.45783 22.5239 2.10182 15.6709 1.74989 14.664C1.42728 14.3512 0.723409 13.6375 0.606097 13.0998C0.47901 12.5719 0.57677 11.4477 0.596321 11.2326C0.596321 11.2131 0.596321 11.2033 0.606097 11.1837C0.684305 10.7634 1.06557 9.95197 1.9063 9.95197L22.2794 10.0106C22.3185 10.0106 22.3576 10.0106 22.387 10.0204C22.7193 10.0986 23.3059 10.3919 23.4134 10.998C23.5014 11.4868 23.4525 12.5426 23.4525 12.6599C23.4525 12.6697 23.4525 12.6697 23.4525 12.6795C23.4428 12.7968 23.3548 13.8037 22.69 14.3414C22.3185 14.8302 20.6664 19.0729 19.2684 22.9442V22.954C19.2391 23.0224 18.9849 23.6481 18.3104 23.9023C18.1735 23.9316 17.9975 24 14.7617 24ZM5.96333 22.9442C10.3039 23.0127 17.2741 23.0713 17.978 22.9638C18.2126 22.8562 18.3299 22.6216 18.3495 22.5923C18.4179 22.4163 19.1413 20.3927 19.9332 18.3495C21.6244 13.921 21.8884 13.7255 22.0643 13.5886C22.3576 13.3638 22.4554 12.7772 22.4749 12.611C22.4945 12.2004 22.5043 11.4575 22.4554 11.174C22.4456 11.1055 22.3185 11.0273 22.211 10.9882L1.9063 10.9296C1.69123 10.9296 1.59347 11.2717 1.57392 11.3499C1.53481 11.829 1.49571 12.6013 1.56414 12.8848C1.60325 13.0705 2.05294 13.618 2.50264 14.0383C2.56129 14.097 2.61017 14.1654 2.62972 14.2338C3.38247 16.4334 5.38655 22.2306 5.53318 22.5825C5.59184 22.7389 5.82646 22.8758 5.96333 22.9442Z" fill="#EE2E24"/>
<path d="M22.6704 13.9503H1.34903C1.0753 13.9503 0.860229 13.7353 0.860229 13.4615C0.860229 13.1878 1.0753 12.9727 1.34903 12.9727H22.6704C22.9441 12.9727 23.1592 13.1878 23.1592 13.4615C23.1592 13.7353 22.9441 13.9503 22.6704 13.9503Z" fill="#EE2E24"/>
<path d="M11.9267 21.4681C11.6529 21.4681 11.4379 21.253 11.4379 20.9793V15.5243C11.4379 15.2506 11.6529 15.0355 11.9267 15.0355C12.2004 15.0355 12.4155 15.2506 12.4155 15.5243V20.9793C12.4155 21.2432 12.2004 21.4681 11.9267 21.4681Z" fill="#EE2E24"/>
<path d="M15.2799 21.4681C15.2212 21.4681 15.1723 21.4583 15.1137 21.4388C14.8595 21.3508 14.7226 21.0673 14.8204 20.8131L16.7756 15.3581C16.8636 15.1039 17.1471 14.9768 17.4012 15.0648C17.6554 15.1528 17.7923 15.4363 17.6945 15.6905L15.7393 21.1455C15.6709 21.341 15.4852 21.4681 15.2799 21.4681Z" fill="#EE2E24"/>
<path d="M8.89613 21.4681C8.70061 21.4681 8.51487 21.3508 8.43666 21.1455L6.42282 15.6905C6.32506 15.4363 6.46192 15.1528 6.7161 15.0648C6.97027 14.9671 7.25377 15.1039 7.34176 15.3581L9.3556 20.8131C9.45336 21.0672 9.3165 21.3508 9.06232 21.4387C9.01344 21.4583 8.95479 21.4681 8.89613 21.4681Z" fill="#EE2E24"/>
<path d="M22.8562 20.207C22.6216 20.207 22.4065 20.0505 22.3381 19.8061L19.7279 10.1866C19.6497 9.90308 19.8159 9.60003 20.1092 9.53159C20.3927 9.45339 20.6957 9.61958 20.7641 9.91286L23.3743 19.5324C23.4525 19.8159 23.2863 20.119 22.9931 20.1874C22.954 20.1972 22.9051 20.207 22.8562 20.207Z" fill="#F99B2A"/>
<path d="M1.22196 19.9234C1.18286 19.9234 1.14376 19.9234 1.09488 19.9137C0.801597 19.8452 0.625629 19.5519 0.694061 19.2684L2.88388 9.94217C2.95231 9.64889 3.24559 9.47292 3.52909 9.54135C3.82237 9.60978 3.99834 9.90306 3.92991 10.1866L1.74987 19.5031C1.69121 19.7475 1.46636 19.9234 1.22196 19.9234Z" fill="#F99B2A"/>
</g>
<defs>
<clipPath id="clip0_292_246">
<rect width="22.9246" height="24" fill="white" transform="translate(0.53772)"/>
</clipPath>
</defs>
</svg>
