<svg width="15" height="15" viewBox="0 0 15 15" fill="none" xmlns="http://www.w3.org/2000/svg">
<path d="M7.50003 10.4532C7.45693 10.4532 7.41424 10.4448 7.37442 10.4283C7.3346 10.4118 7.29843 10.3876 7.26799 10.3571L2.89299 5.98207C2.86252 5.9516 2.83835 5.91542 2.82185 5.87561C2.80536 5.83579 2.79688 5.79312 2.79688 5.75003C2.79688 5.663 2.83145 5.57953 2.89299 5.51799C2.95453 5.45645 3.038 5.42188 3.12503 5.42188C3.21206 5.42188 3.29553 5.45645 3.35707 5.51799L7.50003 9.661L11.643 5.51799C11.7045 5.45645 11.788 5.42187 11.875 5.42188C11.9621 5.42188 12.0455 5.45645 12.1071 5.51799C12.1686 5.57953 12.2032 5.663 12.2032 5.75003C12.2032 5.83706 12.1686 5.92053 12.1071 5.98207L7.73207 10.3571C7.70163 10.3876 7.66546 10.4118 7.62564 10.4283C7.58581 10.4448 7.54313 10.4532 7.50003 10.4532Z" fill="#9A9A9C"/>
</svg>
