<svg width="21" height="21" viewBox="0 0 21 21" fill="none" xmlns="http://www.w3.org/2000/svg">
<path d="M3.79 11.3333C4.25024 11.3333 4.62333 10.9602 4.62333 10.5C4.62333 10.0398 4.25024 9.66666 3.79 9.66666C3.32976 9.66666 2.95667 10.0398 2.95667 10.5C2.95667 10.9602 3.32976 11.3333 3.79 11.3333Z" stroke="#EE2E24" stroke-width="2"/>
<path d="M10.4566 11.3333C10.9169 11.3333 11.29 10.9602 11.29 10.5C11.29 10.0398 10.9169 9.66666 10.4566 9.66666C9.99639 9.66666 9.62329 10.0398 9.62329 10.5C9.62329 10.9602 9.99639 11.3333 10.4566 11.3333Z" stroke="#EE2E24" stroke-width="2"/>
<path d="M17.1234 11.3333C17.5836 11.3333 17.9567 10.9602 17.9567 10.5C17.9567 10.0398 17.5836 9.66666 17.1234 9.66666C16.6631 9.66666 16.29 10.0398 16.29 10.5C16.29 10.9602 16.6631 11.3333 17.1234 11.3333Z" stroke="#EE2E24" stroke-width="2"/>
</svg>
