<svg width="85" height="85" viewBox="0 0 85 85" fill="none" xmlns="http://www.w3.org/2000/svg">
<rect y="42.4264" width="60" height="60" rx="30" transform="rotate(-45 0 42.4264)" fill="#EE2E24"/>
<path d="M53.3107 26.4352C53.6337 26.1123 53.6666 25.6225 53.3843 25.3402L49.2988 21.2547C48.1722 20.1281 46.208 20.2601 44.919 21.549L21.549 44.919C20.2601 46.2079 20.1281 48.1722 21.2547 49.2988L25.3402 53.3843C25.6225 53.6666 26.1123 53.6337 26.4352 53.3107C28.0459 51.7001 30.502 51.535 31.9099 52.9429C33.3177 54.3508 33.1527 56.8069 31.5421 58.4176C31.2191 58.7405 31.1862 59.2303 31.4685 59.5126L35.554 63.5981C36.6806 64.7247 38.6448 64.5927 39.9338 63.3038L63.3039 39.9337C64.5927 38.6448 64.7247 36.6806 63.5981 35.554L59.5126 31.4685C59.2303 31.1862 58.7405 31.2191 58.4176 31.542C56.8069 33.1527 54.3508 33.3177 52.9429 31.9099C51.5351 30.502 51.7001 28.0459 53.3107 26.4352ZM51.7744 33.0783C53.5723 34.8762 56.5908 34.8421 58.8184 33.1112L62.4296 36.7225C62.9926 37.2855 62.9266 38.2682 62.2825 38.9123L38.9124 62.2824C38.2682 62.9265 37.2856 62.9925 36.7225 62.4295L33.1113 58.8183C34.8422 56.5907 34.8763 53.5723 33.0784 51.7744C31.2805 49.9765 28.2621 50.0106 26.0345 51.7415L22.4233 48.1303C21.8603 47.5672 21.9263 46.5846 22.5704 45.9404L45.9405 22.5703C46.5846 21.9262 47.5673 21.8602 48.1303 22.4232L51.7416 26.0344C50.0106 28.2621 49.9766 31.2805 51.7744 33.0783Z" fill="white"/>
<path d="M28.7217 41.5757C28.3987 41.8987 28.3658 42.3884 28.6481 42.6707L29.7971 43.8198C30.0794 44.102 30.5692 44.0691 30.8921 43.7462C31.2151 43.4232 31.248 42.9335 30.9657 42.6512L29.8166 41.5022C29.5343 41.2199 29.0446 41.2528 28.7217 41.5757Z" fill="white"/>
<path d="M32.9357 45.7889C32.6128 46.1118 32.5799 46.6016 32.8622 46.8839L33.8836 47.9054C34.1659 48.1877 34.6557 48.1548 34.9786 47.8318C35.3016 47.5089 35.3345 47.0191 35.0522 46.7368L34.0307 45.7154C33.7484 45.4331 33.2587 45.466 32.9357 45.7889Z" fill="white"/>
<path d="M37.0212 49.8748C36.6983 50.1978 36.6654 50.6875 36.9476 50.9698L37.9689 51.9911C38.2512 52.2733 38.7409 52.2404 39.0639 51.9175C39.3868 51.5945 39.4197 51.1048 39.1375 50.8225L38.1162 49.8012C37.8338 49.519 37.3442 49.5519 37.0212 49.8748Z" fill="white"/>
<path d="M41.1072 53.9602C40.7843 54.2831 40.7514 54.7729 41.0337 55.0551L42.055 56.0765C42.3373 56.3588 42.827 56.3259 43.15 56.0029C43.4729 55.68 43.5058 55.1902 43.2235 54.9079L42.2022 53.8866C41.9199 53.6044 41.4302 53.6372 41.1072 53.9602Z" fill="white"/>
<path d="M45.8378 40.6322L48.4877 37.0438H45.7657L43.3128 40.4796V37.0438H40.9323V44.5062H43.3127V41.0705L47.5468 46.5276C46.4486 47.1999 45.1836 47.5509 43.8957 47.5404C43.0016 47.5583 42.1131 47.3955 41.2834 47.0617C40.4538 46.7279 39.7002 46.2301 39.0678 45.5981C38.4355 44.9661 37.9374 44.2129 37.6034 43.3838C37.2695 42.5546 37.1066 41.6666 37.1245 40.773C37.1287 38.981 37.8439 37.2638 39.1133 35.9982C40.3826 34.7325 42.1025 34.0217 43.8955 34.0217C45.6886 34.0217 47.4085 34.7325 48.6778 35.9982C49.9472 37.2638 50.6624 38.981 50.6666 40.773C50.6794 42.2854 50.1902 43.7593 49.2756 44.9643L45.8378 40.6322Z" fill="white"/>
</svg>
