<svg width="23" height="21" viewBox="0 0 23 21" fill="none" xmlns="http://www.w3.org/2000/svg">
<path d="M20.5843 2.15099C23.112 4.21057 23.0183 8.89145 20.6779 11.2319C18.6183 13.8532 13.7502 18.8149 11.9715 20.2191C11.5034 20.5936 10.9417 20.5936 10.4736 20.2191C8.78851 18.8149 3.92039 13.8532 1.86081 11.2319C-0.573241 8.79783 -0.666858 4.11695 1.86081 2.15099C4.29486 -0.283064 9.06935 -0.0958273 11.2226 3.18078C13.3758 -0.00220996 18.0566 -0.283064 20.5843 2.15099ZM19.929 2.89993C17.6821 0.653112 13.1885 1.02758 11.597 4.30419C11.5034 4.58504 11.2226 4.67866 10.9417 4.49142C10.8481 4.49142 10.7545 4.39781 10.7545 4.30419C9.25659 1.02758 4.66934 0.559495 2.42252 2.89993C0.362939 4.49143 0.456562 8.61059 2.51614 10.6702C4.57573 13.1978 9.35019 18.1596 11.0353 19.4702C11.1289 19.5638 11.2226 19.5638 11.3162 19.4702C13.0013 18.1596 17.7758 13.1978 19.8354 10.5766C21.9886 8.61059 22.0822 4.49143 19.929 2.89993Z" fill="#EE2E24"/>
</svg>
