<svg width="16" height="13" viewBox="0 0 16 13" fill="none" xmlns="http://www.w3.org/2000/svg">
<path d="M3.49828 2.21L0.854278 4.854C0.760524 4.94789 0.633314 5.00068 0.500632 5.00078C0.36795 5.00087 0.240665 4.94825 0.146778 4.8545C0.0528916 4.76075 9.38933e-05 4.63354 1.25111e-07 4.50085C-9.36431e-05 4.36817 0.0525242 4.24089 0.146278 4.147L3.61528 0.68C3.66203 0.623765 3.72057 0.578493 3.78675 0.547388C3.85294 0.516283 3.92515 0.500105 3.99828 0.5H4.00028C4.06605 0.500014 4.13118 0.513006 4.19192 0.53823C4.25267 0.563455 4.30784 0.600417 4.35428 0.647L4.36428 0.657L7.85428 4.147C7.94536 4.2413 7.99576 4.3676 7.99462 4.4987C7.99348 4.6298 7.94089 4.75521 7.84819 4.84791C7.75548 4.94061 7.63008 4.9932 7.49898 4.99434C7.36788 4.99548 7.24158 4.94508 7.14728 4.854L4.49728 2.205V12C4.49728 12.1326 4.4446 12.2598 4.35083 12.3536C4.25706 12.4473 4.12989 12.5 3.99728 12.5C3.86467 12.5 3.73749 12.4473 3.64373 12.3536C3.54996 12.2598 3.49728 12.1326 3.49728 12V2.21H3.49828Z" fill="#EE2E24"/>
<path d="M12.5024 10.79L15.1474 8.146C15.2417 8.05492 15.368 8.00452 15.4991 8.00566C15.6302 8.0068 15.7556 8.05939 15.8483 8.15209C15.941 8.2448 15.9936 8.3702 15.9948 8.5013C15.9959 8.6324 15.9455 8.7587 15.8544 8.853L12.3854 12.321C12.3385 12.377 12.2799 12.422 12.2138 12.453C12.1476 12.4839 12.0755 12.5 12.0024 12.5H12.0014C11.9355 12.5001 11.8702 12.4872 11.8092 12.462C11.7483 12.4367 11.693 12.3997 11.6464 12.353L11.6364 12.343L8.14642 8.853C8.09866 8.80688 8.06057 8.75171 8.03437 8.6907C8.00816 8.6297 7.99437 8.56409 7.99379 8.4977C7.99322 8.43131 8.00587 8.36547 8.03101 8.30402C8.05615 8.24258 8.09328 8.18675 8.14022 8.1398C8.18717 8.09286 8.24299 8.05573 8.30444 8.03059C8.36589 8.00545 8.43173 7.9928 8.49812 7.99338C8.56451 7.99395 8.63012 8.00775 8.69112 8.03395C8.75212 8.06015 8.80729 8.09825 8.85342 8.146L11.5034 10.795V1C11.5034 0.867392 11.5561 0.740215 11.6499 0.646447C11.7436 0.552679 11.8708 0.5 12.0034 0.5C12.136 0.5 12.2632 0.552679 12.357 0.646447C12.4507 0.740215 12.5034 0.867392 12.5034 1V10.79H12.5024Z" fill="#EE2E24"/>
</svg>
