<svg width="20" height="20" viewBox="0 0 20 20" fill="none" xmlns="http://www.w3.org/2000/svg">
<path d="M10 14.2187C9.93847 14.2188 9.87749 14.2067 9.8206 14.1832C9.76371 14.1596 9.71204 14.1251 9.66856 14.0815L3.41856 7.83146C3.37502 7.78793 3.34049 7.73625 3.31693 7.67938C3.29338 7.6225 3.28125 7.56154 3.28125 7.49998C3.28125 7.37565 3.33064 7.25641 3.41856 7.16849C3.50647 7.08058 3.62571 7.03119 3.75004 7.03119C3.87437 7.03119 3.99361 7.08058 4.08152 7.16849L10 13.0871L15.9186 7.16849C16.0065 7.08058 16.1257 7.03119 16.25 7.03119C16.3744 7.03119 16.4936 7.08058 16.5815 7.16849C16.6694 7.25641 16.7188 7.37565 16.7188 7.49998C16.7188 7.62431 16.6694 7.74355 16.5815 7.83146L10.3315 14.0815C10.288 14.1251 10.2364 14.1596 10.1795 14.1832C10.1226 14.2067 10.0616 14.2188 10 14.2187Z" fill="#9A9A9C"/>
</svg>
