<svg width="12" height="13" viewBox="0 0 12 13" fill="none" xmlns="http://www.w3.org/2000/svg">
<path d="M4.2 10.4067L5.4 11.0733V6.68C5.39934 6.50511 5.33685 6.33751 5.226 6.21333L1.338 1.83333H10.674L6.792 6.21333C6.68115 6.33751 6.61866 6.50511 6.618 6.68L6.6 11.8333L7.8 12.5V6.95333L11.748 2.5C11.9059 2.32198 11.9962 2.08327 12 1.83333V1.16667C12 0.989856 11.9368 0.820287 11.8243 0.695262C11.7117 0.570238 11.5591 0.5 11.4 0.5H0.6C0.44087 0.5 0.288258 0.570238 0.175736 0.695262C0.0632142 0.820287 0 0.989856 0 1.16667V1.83333C0.0038385 2.08327 0.0940713 2.32198 0.252 2.5L4.2 6.95333V10.4067Z" fill="#EE2E24"/>
</svg>
