<svg width="24" height="25" viewBox="0 0 24 25" fill="none" xmlns="http://www.w3.org/2000/svg">
<path d="M10.8866 3.8276C12.3307 3.82629 13.7428 4.2533 14.9441 5.05463C16.1455 5.85597 17.0822 6.99561 17.6357 8.32939C18.1893 9.66318 18.3348 11.1312 18.0539 12.5477C17.7729 13.9642 17.0782 15.2655 16.0575 16.2871C15.0369 17.3087 13.7362 18.0046 12.3199 18.2868C10.9037 18.5691 9.43555 18.4249 8.10126 17.8726C6.76697 17.3202 5.62647 16.3846 4.82404 15.184C4.02161 13.9833 3.59331 12.5717 3.59331 11.1276C3.60206 9.19537 4.37306 7.34468 5.73875 5.97775C7.10443 4.61082 8.95442 3.83812 10.8866 3.8276ZM10.8866 2.46094C9.17254 2.46094 7.49692 2.96923 6.0717 3.92153C4.64647 4.87384 3.53564 6.22739 2.87969 7.81101C2.22373 9.39464 2.0521 11.1372 2.3865 12.8184C2.72091 14.4996 3.54633 16.0438 4.75838 17.2559C5.97044 18.4679 7.51469 19.2933 9.19586 19.6277C10.877 19.9621 12.6196 19.7905 14.2032 19.1346C15.7869 18.4786 17.1404 17.3678 18.0927 15.9425C19.045 14.5173 19.5533 12.8417 19.5533 11.1276C19.5533 8.82906 18.6402 6.62466 17.0149 4.99935C15.3896 3.37403 13.1852 2.46094 10.8866 2.46094Z" fill="#EE2E24"/>
<path d="M23.3333 22.6542L18.4199 17.7075L17.4733 18.6475L22.3866 23.5942C22.4483 23.6563 22.5217 23.7057 22.6025 23.7395C22.6833 23.7734 22.77 23.7909 22.8576 23.7912C22.9452 23.7915 23.032 23.7746 23.113 23.7414C23.1941 23.7081 23.2678 23.6592 23.3299 23.5975C23.3921 23.5358 23.4415 23.4624 23.4753 23.3816C23.5091 23.3008 23.5267 23.2141 23.527 23.1265C23.5273 23.0389 23.5103 22.9521 23.4771 22.8711C23.4439 22.7901 23.395 22.7163 23.3333 22.6542Z" fill="#EE2E24"/>
</svg>
