<svg width="24" height="22" viewBox="0 0 24 22" fill="none" xmlns="http://www.w3.org/2000/svg">
<path d="M21.2581 14.2636C21.354 13.4141 21.4585 11.9123 21.2487 10.397C21.2221 10.2042 21.0439 10.0694 20.8515 10.0964C20.6588 10.1231 20.5242 10.3009 20.5509 10.4936C20.7464 11.9054 20.6473 13.3412 20.5687 14.0856C20.348 14.0488 20.1216 14.0293 19.8906 14.0293C19.3374 14.0293 18.8095 14.1395 18.3273 14.3385C18.6746 13.2906 18.8837 12.1093 18.9122 10.9898C18.9514 9.45012 18.6572 8.03019 18.058 6.8436H18.3528L18.6035 6.89375C19.3013 7.2628 19.8307 7.93902 20.1779 8.90825C20.2435 9.09149 20.4452 9.18669 20.6283 9.12106C20.8114 9.05548 20.9068 8.85383 20.8412 8.67064C20.6307 8.08325 20.3582 7.58572 20.0271 7.17847L20.1973 7.2125C20.412 7.25544 20.6186 7.08575 20.6186 6.86713V4.61277C20.6186 4.39401 20.412 4.22442 20.1973 4.2674L18.74 4.55887V2.73408C18.74 2.59008 18.6523 2.46056 18.5185 2.40703L16.8403 1.73573C16.7224 1.03711 16.1135 0.503204 15.3819 0.503204C14.5661 0.503204 13.9024 1.16686 13.9024 1.98262C13.9024 2.79839 14.5661 3.46204 15.3819 3.46204C16.027 3.46204 16.5766 3.04687 16.7785 2.46979L18.0354 2.97257V4.63616H14.6304C14.4358 4.63616 14.2781 4.79381 14.2781 4.98838C14.2781 5.18296 14.4358 5.34065 14.6304 5.34065H16.9083V6.49129C16.9083 6.68455 17.0638 6.84121 17.2566 6.84332C18.8693 9.61006 18.1111 13.1438 17.3929 14.8226C17.3829 14.8462 17.3757 14.8703 17.371 14.8945C17.2646 14.9773 17.1624 15.0651 17.0647 15.1578C17.0556 15.1571 17.0466 15.1564 17.0373 15.1564H13.8524C14.1512 14.2341 14.3613 13.1511 14.2016 12.1524C14.019 11.0101 13.3964 10.1583 12.3526 9.61803V7.61849C12.3526 7.42391 12.1949 7.26627 12.0004 7.26627H7.86739C6.6373 7.26627 5.63652 8.26705 5.63652 9.49714V9.5218C5.62874 9.52128 5.62096 9.52062 5.61304 9.52062H5.58956V7.2193H5.98874C6.18332 7.2193 6.34096 7.06166 6.34096 6.86703V4.98843C6.34096 4.79385 6.18332 4.63621 5.98874 4.63621H0.352877C0.158299 4.63621 0.000612065 4.79385 0.000612065 4.98843V6.86703C0.000612065 7.06161 0.158252 7.2193 0.352877 7.2193H0.752064V9.52062H0.352877C0.158299 9.52062 0.000612065 9.67831 0.000612065 9.87289C0.000612065 10.0675 0.158252 10.2251 0.352877 10.2251H4.31395C4.04362 10.3614 3.78562 10.5097 3.54131 10.6699C-0.0741064 13.0398 -0.0157473 16.5934 0.00347144 17.7611C0.00483081 17.8442 0.00712768 17.9275 0.00525268 18.0107C0.00379956 18.0745 -0.0039348 18.1354 0.0136433 18.1982C0.0557838 18.3485 0.19669 18.4555 0.35283 18.4555H1.14314C1.30331 20.1591 2.74101 21.4968 4.48584 21.4968C6.23066 21.4968 7.66836 20.1591 7.82854 18.4555H12.0004C12.0933 18.4555 12.1825 18.4188 12.2484 18.3533C12.3493 18.2532 12.5989 17.882 12.8846 17.3639H15.8546C15.8066 17.6149 15.7811 17.8739 15.7811 18.1388C15.7811 18.3334 15.9387 18.4911 16.1333 18.4911H16.5511C16.7277 20.1777 18.1579 21.4969 19.8905 21.4969C21.6231 21.4969 23.0533 20.1778 23.2299 18.4911H23.6477C23.8423 18.4911 24 18.3334 24 18.1388C24 16.3521 22.8537 14.8283 21.2581 14.2636ZM18.7398 5.27718L19.9139 5.04234V6.43738L18.8348 6.22152C18.8033 6.20615 18.7719 6.19049 18.7398 6.17601V5.27718ZM15.3818 2.75756C14.9545 2.75756 14.6068 2.40993 14.6068 1.98262C14.6068 1.55531 14.9545 1.20769 15.3818 1.20769C15.8091 1.20769 16.1567 1.55531 16.1567 1.98262C16.1567 2.40993 15.8091 2.75756 15.3818 2.75756ZM18.0353 6.13907H17.6126V5.34065H17.6361H18.0353V6.13907ZM6.34091 9.49714C6.34091 8.65545 7.02562 7.97075 7.8673 7.97075H11.648V9.52062H6.34091V9.49714ZM0.705048 6.51482V5.34069H5.63643V6.51482H0.705048ZM1.4565 9.52062V7.2193H4.88498V9.52062H1.4565ZM4.48579 20.7924C3.12979 20.7924 2.00887 19.7698 1.8518 18.4555H2.65828C2.80903 19.328 3.57089 19.9939 4.48579 19.9939C5.4007 19.9939 6.16255 19.328 6.3133 18.4555H7.11974C6.96271 19.7698 5.84174 20.7924 4.48579 20.7924ZM3.37978 18.4554H5.59176C5.45385 18.9363 5.01042 19.2894 4.48574 19.2894C3.96107 19.2894 3.51768 18.9363 3.37978 18.4554ZM12.8708 15.7775C12.4707 16.7345 12.0157 17.4763 11.8267 17.7509H0.707908C0.707861 17.7505 0.707861 17.7499 0.707861 17.7495C0.688361 16.5644 0.636658 13.4162 3.92746 11.259C4.52793 10.8654 5.22145 10.5481 5.98874 10.316C6.04766 10.2982 6.09843 10.2662 6.13855 10.2251H11.9943C12.8324 10.6476 13.3217 11.2834 13.4895 12.1689C13.7189 13.3798 13.2797 14.7997 12.8708 15.7775ZM16.0567 16.6593H13.2469C13.326 16.4943 13.4043 16.3225 13.4798 16.1462C13.5189 16.0548 13.5583 15.9594 13.5976 15.8609H16.4718C16.3057 16.1094 16.166 16.3769 16.0567 16.6593ZM19.8905 20.7924C18.4569 20.7924 17.286 19.6495 17.2392 18.2271C17.5893 17.6134 17.9952 17.1861 18.4884 16.9261C18.2065 17.2516 18.0353 17.6755 18.0353 18.1388C18.0353 19.1617 18.8675 19.9939 19.8904 19.9939C20.9133 19.9939 21.7456 19.1617 21.7456 18.1388C21.7456 17.7242 21.6087 17.3408 21.378 17.0316C21.8913 17.3483 22.2718 17.7987 22.5419 18.2202C22.4987 19.6457 21.3264 20.7924 19.8905 20.7924ZM18.7398 18.1388C18.7398 17.5043 19.2559 16.9881 19.8904 16.9881C20.5249 16.9881 21.0411 17.5043 21.0411 18.1388C21.0411 18.7733 20.5249 19.2894 19.8904 19.2894C19.2559 19.2894 18.7398 18.7733 18.7398 18.1388ZM23.1006 17.7865C22.3026 16.5732 21.1692 15.9079 19.8905 15.9079C18.0644 15.9079 17.1835 16.9308 16.6796 17.7865H16.5036C16.6804 16.0739 18.1319 14.7338 19.8905 14.7338C21.649 14.7338 23.1006 16.0739 23.2774 17.7865H23.1006Z" fill="#EE2E24"/>
</svg>
