<svg width="14" height="16" viewBox="0 0 14 16" fill="none" xmlns="http://www.w3.org/2000/svg">
<path d="M13.5433 8.42229C13.8373 7.99127 14 7.46318 14 6.91373C14 6.04199 13.5608 5.21685 12.8538 4.75671C12.6717 4.63827 12.4645 4.57594 12.2535 4.57615H8.057L8.162 2.19004C8.1865 1.61341 8.00275 1.0659 7.64575 0.648479C7.47055 0.442733 7.25918 0.279035 7.0247 0.167499C6.79022 0.0559638 6.53762 -0.00103873 6.2825 1.43287e-05C5.3725 1.43287e-05 4.5675 0.679543 4.326 1.65224L2.82275 7.69034H2.8175V16H11.0827C11.2437 16 11.4012 15.9651 11.5465 15.8952C12.3795 15.501 12.9167 14.5982 12.9167 13.5964C12.9167 13.3518 12.8853 13.111 12.8223 12.8781C13.1163 12.447 13.279 11.9189 13.279 11.3695C13.279 11.1249 13.2475 10.8841 13.1845 10.6511C13.4785 10.2201 13.6412 9.69203 13.6412 9.14259C13.6377 8.89796 13.6063 8.65527 13.5433 8.42229ZM0 8.31162V15.3787C0 15.7224 0.25025 16 0.56 16H1.6975V7.69034H0.56C0.25025 7.69034 0 7.96797 0 8.31162Z" fill="#9A9A9C"/>
</svg>
