<svg width="16" height="21" viewBox="0 0 16 21" fill="none" xmlns="http://www.w3.org/2000/svg">
<g clip-path="url(#clip0_91_9)">
<path d="M1.94143 20.5C1.91409 20.4805 1.89065 20.4648 1.8633 20.4453C1.70705 20.3398 1.63674 20.1953 1.67971 20.0117C1.72268 19.8359 1.87112 19.7226 2.07034 19.7226C2.44143 19.7187 2.81252 19.7226 3.18362 19.7226C4.42581 19.7226 5.668 19.7226 6.91409 19.7226C6.9844 19.7226 7.05081 19.7226 7.15237 19.7226C7.10159 19.6445 7.07034 19.5898 7.03518 19.5391C5.30081 17.0859 3.57424 14.6289 1.83596 12.1758C-0.33201 9.12109 0.195334 4.79297 3.03518 2.34766C4.26174 1.29297 5.6719 0.679687 7.28518 0.535156C7.32815 0.53125 7.37112 0.515625 7.418 0.503906C7.75784 0.503906 8.09378 0.503906 8.43362 0.503906C8.82425 0.566406 9.21878 0.613281 9.60159 0.699219C12.461 1.33203 14.7422 3.74219 15.2266 6.64843C15.5664 8.69921 15.1328 10.5742 13.9297 12.2734C13.5391 12.8242 13.1485 13.3789 12.7578 13.9297C12.6563 14.0742 12.5196 14.1523 12.3399 14.1094C12.168 14.0703 12.0508 13.957 12.043 13.7891C12.0391 13.6758 12.0821 13.543 12.1446 13.4492C12.5157 12.9062 12.8946 12.3711 13.2813 11.8359C16.1211 7.90234 13.9922 2.40625 9.24612 1.41016C5.64065 0.65625 2.01174 3.11328 1.39065 6.72265C1.06643 8.60156 1.46877 10.3086 2.57034 11.8633C4.30471 14.3086 6.03128 16.7617 7.76175 19.2148C7.80472 19.2773 7.85159 19.3398 7.91409 19.4297C7.96487 19.3633 8.00784 19.3086 8.0469 19.2539C8.69144 18.3398 9.33597 17.4258 9.98441 16.5117C10.0274 16.4531 10.0664 16.3906 10.1133 16.3398C10.25 16.1953 10.4493 16.1797 10.6094 16.2852C10.7657 16.3906 10.8243 16.5898 10.7422 16.7695C10.711 16.832 10.668 16.8906 10.6289 16.9492C10.0235 17.8047 9.42191 18.6601 8.81644 19.5156C8.77737 19.5742 8.73831 19.6328 8.67972 19.7187C8.77737 19.7187 8.84378 19.7187 8.91409 19.7187C10.5078 19.7187 12.1055 19.7187 13.6993 19.7187C13.9844 19.7187 14.1602 19.8672 14.1641 20.1055C14.168 20.3008 14.0352 20.4062 13.8907 20.5C9.91019 20.5 5.92581 20.5 1.94143 20.5Z" fill="#EE2E24"/>
<path d="M4.40234 7.92188C4.40234 5.98438 5.98047 4.40625 7.91797 4.40625C9.85547 4.40625 11.4336 5.98438 11.4336 7.92188C11.4336 9.85938 9.85547 11.4375 7.91797 11.4375C5.98047 11.4375 4.40234 9.85938 4.40234 7.92188ZM7.91797 5.1875C6.41406 5.1875 5.18359 6.41016 5.18359 7.91406C5.17969 9.41797 6.40235 10.6484 7.90625 10.6523C9.42188 10.6562 10.6524 9.42969 10.6524 7.91406C10.6484 6.41406 9.42579 5.1875 7.91797 5.1875Z" fill="#EE2E24"/>
<path d="M11.8242 15.1797C11.8281 15.3945 11.6484 15.5781 11.4335 15.5781C11.2265 15.5781 11.0507 15.4062 11.0468 15.1992C11.0429 14.9844 11.2226 14.8008 11.4374 14.8008C11.6406 14.7969 11.8163 14.9688 11.8242 15.1797Z" fill="#EE2E24"/>
</g>
<defs>
<clipPath id="clip0_91_9">
<rect width="14.8398" height="20" fill="white" transform="translate(0.5 0.5)"/>
</clipPath>
</defs>
</svg>
