<svg width="21" height="20" viewBox="0 0 21 20" fill="none" xmlns="http://www.w3.org/2000/svg">
<path d="M12.9712 9.77886L16.9006 4.47062H12.8643L9.22683 9.55307V4.47062H5.69692V15.5097H9.22672V10.4272L15.5054 18.4998C13.8769 19.4945 12.0011 20.0135 10.0913 19.998C8.76544 20.0245 7.44785 19.7837 6.21762 19.2899C4.98739 18.7962 3.86988 18.0598 2.93216 17.1249C1.99443 16.1899 1.2558 15.0758 0.760607 13.8492C0.265415 12.6227 0.0238644 11.3091 0.0504391 9.98714C0.0566475 7.33624 1.11722 4.79603 2.99953 2.92375C4.88183 1.05147 7.43215 0 10.091 0C12.7499 0 15.3002 1.05147 17.1825 2.92375C19.0648 4.79603 20.1254 7.33624 20.1316 9.98714C20.1506 12.2244 19.4252 14.4048 18.069 16.1873L12.9712 9.77886Z" fill="#EE2E24"/>
</svg>
