<svg width="36" height="36" viewBox="0 0 36 36" fill="none" xmlns="http://www.w3.org/2000/svg">
<rect x="0.75" y="0.5" width="35" height="35" rx="17.5" fill="#F99B2A"/>
<path d="M24.3438 12.25H12.1562C11.3652 12.25 10.75 12.8945 10.75 13.6562V22.0938C10.75 22.8848 11.3652 23.5 12.1562 23.5H24.3438C25.1055 23.5 25.75 22.8848 25.75 22.0938V13.6562C25.75 12.8945 25.1055 12.25 24.3438 12.25ZM24.3438 13.6562V14.8574C23.6699 15.4141 22.6152 16.2344 20.3887 17.9922C19.8906 18.373 18.9238 19.3105 18.25 19.2812C17.5469 19.3105 16.5801 18.373 16.082 17.9922C13.8555 16.2344 12.8008 15.4141 12.1562 14.8574V13.6562H24.3438ZM12.1562 22.0938V16.6738C12.8008 17.2012 13.7676 17.9629 15.2031 19.1055C15.8477 19.6035 16.9902 20.7168 18.25 20.6875C19.4805 20.7168 20.5938 19.6035 21.2676 19.1055C22.7031 17.9629 23.6699 17.2012 24.3438 16.6738V22.0938H12.1562Z" fill="white"/>
</svg>
