<svg width="25" height="25" viewBox="0 0 25 25" fill="none" xmlns="http://www.w3.org/2000/svg">
<g clip-path="url(#clip0_91_13)">
<path d="M11.3866 3.86667C12.8307 3.86535 14.2428 4.29236 15.4441 5.0937C16.6455 5.89503 17.5822 7.03467 18.1357 8.36846C18.6893 9.70224 18.8348 11.1702 18.5539 12.5867C18.2729 14.0032 17.5782 15.3046 16.5575 16.3262C15.5369 17.3478 14.2362 18.0437 12.8199 18.3259C11.4037 18.6081 9.93555 18.4639 8.60126 17.9116C7.26697 17.3593 6.12647 16.4236 5.32404 15.223C4.52161 14.0224 4.09331 12.6108 4.09331 11.1667C4.10206 9.23444 4.87306 7.38374 6.23875 6.01681C7.60443 4.64988 9.45442 3.87719 11.3866 3.86667ZM11.3866 2.5C9.67254 2.5 7.99692 3.00829 6.5717 3.9606C5.14647 4.9129 4.03564 6.26645 3.37969 7.85008C2.72373 9.4337 2.5521 11.1763 2.8865 12.8575C3.22091 14.5386 4.04633 16.0829 5.25838 17.2949C6.47044 18.507 8.01469 19.3324 9.69586 19.6668C11.377 20.0012 13.1196 19.8296 14.7032 19.1736C16.2869 18.5177 17.6404 17.4068 18.5927 15.9816C19.545 14.5564 20.0533 12.8808 20.0533 11.1667C20.0533 8.86812 19.1402 6.66372 17.5149 5.03841C15.8896 3.41309 13.6852 2.5 11.3866 2.5Z" fill="white"/>
<path d="M23.8333 22.6933L18.9199 17.7466L17.9733 18.6866L22.8866 23.6333C22.9483 23.6955 23.0217 23.7449 23.1025 23.7787C23.1833 23.8125 23.27 23.83 23.3576 23.8303C23.4452 23.8307 23.532 23.8137 23.613 23.7805C23.6941 23.7472 23.7678 23.6984 23.8299 23.6366C23.8921 23.5749 23.9415 23.5016 23.9753 23.4208C24.0091 23.3399 24.0267 23.2533 24.027 23.1657C24.0273 23.0781 24.0103 22.9913 23.9771 22.9102C23.9439 22.8292 23.895 22.7555 23.8333 22.6933Z" fill="white"/>
</g>
<defs>
<clipPath id="clip0_91_13">
<rect width="24" height="24" fill="white" transform="translate(0.5 0.5)"/>
</clipPath>
</defs>
</svg>
