<svg width="17" height="17" viewBox="0 0 17 17" fill="none" xmlns="http://www.w3.org/2000/svg">
<path d="M16.7143 7.07031C16.7143 6.76897 16.3929 6.64844 16.1518 6.60826L11.1094 5.875L8.84933 1.30469C8.75893 1.11384 8.58817 0.892857 8.35714 0.892857C8.12612 0.892857 7.95536 1.11384 7.86496 1.30469L5.60491 5.875L0.5625 6.60826C0.311384 6.64844 0 6.76897 0 7.07031C0 7.25112 0.13058 7.42187 0.251116 7.55246L3.90737 11.1083L3.04353 16.1306C3.03348 16.2009 3.02344 16.2612 3.02344 16.3315C3.02344 16.5926 3.15402 16.8337 3.44531 16.8337C3.58594 16.8337 3.71652 16.7835 3.8471 16.7132L8.35714 14.3426L12.8672 16.7132C12.9877 16.7835 13.1283 16.8337 13.269 16.8337C13.5603 16.8337 13.6808 16.5926 13.6808 16.3315C13.6808 16.2612 13.6808 16.2009 13.6708 16.1306L12.8069 11.1083L16.4531 7.55246C16.5837 7.42187 16.7143 7.25112 16.7143 7.07031Z" fill="#F99B2A"/>
</svg>
