<svg width="36" height="36" viewBox="0 0 36 36" fill="none" xmlns="http://www.w3.org/2000/svg">
<rect x="0.75" y="0.5" width="35" height="35" rx="17.5" fill="#F99B2A"/>
<path d="M25.834 14.0371C25.6582 13.334 25.1016 12.7773 24.4277 12.6016C23.168 12.25 18.1875 12.25 18.1875 12.25C18.1875 12.25 13.1777 12.25 11.918 12.6016C11.2441 12.7773 10.6875 13.334 10.5117 14.0371C10.1602 15.2676 10.1602 17.9043 10.1602 17.9043C10.1602 17.9043 10.1602 20.5117 10.5117 21.7715C10.6875 22.4746 11.2441 23.002 11.918 23.1777C13.1777 23.5 18.1875 23.5 18.1875 23.5C18.1875 23.5 23.168 23.5 24.4277 23.1777C25.1016 23.002 25.6582 22.4746 25.834 21.7715C26.1855 20.5117 26.1855 17.9043 26.1855 17.9043C26.1855 17.9043 26.1855 15.2676 25.834 14.0371ZM16.5469 20.2773V15.5312L20.707 17.9043L16.5469 20.2773Z" fill="white"/>
</svg>
